<?xml version="1.0" encoding="iso-8859-1"?>
<!-- Generator: Adobe Illustrator 23.0.2, SVG Export Plug-In . SVG Version: 6.00 Build 0)  -->
<svg version="1.1" xmlns="http://www.w3.org/2000/svg" xmlns:xlink="http://www.w3.org/1999/xlink" x="0px" y="0px"
	 viewBox="0 0 1200 1200" style="enable-background:new 0 0 1200 1200;" xml:space="preserve">
<g id="Layer_1">
	<g>
		<path style="fill:#C5E7FC;" d="M980.234,505.498c11.39,103.944-70.938,183.197-85.171,196.898
			c-59.827,57.592-100.735,45.384-190.035,88.683c-181.516,88.012-170.841,215.228-293.921,233.11
			c-95.245,13.839-207.33-46.987-240.711-126.69c-30.88-73.73,26.847-112.856-2.534-200.171
			c-32.079-95.333-113.179-85.195-152.028-179.9c-36.346-88.604-5.108-194.377,43.075-263.516
			c10.216-14.659,90.477-126.376,210.306-129.224c110.659-2.63,125.569,90.663,288.854,139.359
			c120.467,35.927,145.735-4.898,243.245,40.541C830.487,318.184,966.663,381.641,980.234,505.498z"/>
		<g style="opacity:0.44;">
			<defs>
				<path id="SVGID_1_" style="opacity:0.44;" d="M980.234,505.498c11.39,103.944-70.938,183.197-85.171,196.898
					c-59.827,57.592-100.735,45.384-190.035,88.683c-181.516,88.012-170.841,215.228-293.921,233.11
					c-95.245,13.839-207.33-46.987-240.711-126.69c-30.88-73.73,26.847-112.856-2.534-200.171
					c-32.079-95.333-113.179-85.195-152.028-179.9c-36.346-88.604-5.108-194.377,43.075-263.516
					c10.216-14.659,90.477-126.376,210.306-129.224c110.659-2.63,125.569,90.663,288.854,139.359
					c120.467,35.927,145.735-4.898,243.245,40.541C830.487,318.184,966.663,381.641,980.234,505.498z"/>
			</defs>
			<clipPath id="SVGID_2_">
				<use xlink:href="#SVGID_1_"  style="overflow:visible;"/>
			</clipPath>
			<g style="clip-path:url(#SVGID_2_);">
				<g>
					<path style="fill:#F1F2F2;" d="M1030.486,1042.036c0,3.159-2.557,5.715-5.68,5.715H928.74c-3.123,0-5.68-2.557-5.68-5.715
						v-40.619c0-3.159,2.557-5.734,5.68-5.734h96.067c3.123,0,5.68,2.575,5.68,5.734V1042.036z"/>
				</g>
				<g>
					<path style="fill:#F1F2F2;" d="M915.955,1042.036c0,3.159-2.538,5.715-5.68,5.715h-96.048c-3.142,0-5.68-2.557-5.68-5.715
						v-40.619c0-3.159,2.538-5.734,5.68-5.734h96.048c3.142,0,5.68,2.575,5.68,5.734V1042.036z"/>
				</g>
				<g>
					<path style="fill:#F1F2F2;" d="M801.433,1042.036c0,3.159-2.54,5.715-5.68,5.715h-96.05c-3.14,0-5.68-2.557-5.68-5.715v-40.619
						c0-3.159,2.54-5.734,5.68-5.734h96.05c3.14,0,5.68,2.575,5.68,5.734V1042.036z"/>
				</g>
				<g>
					<path style="fill:#F1F2F2;" d="M686.918,1042.036c0,3.159-2.547,5.715-5.689,5.715h-96.048c-3.142,0-5.68-2.557-5.68-5.715
						v-40.619c0-3.159,2.538-5.734,5.68-5.734h96.048c3.142,0,5.689,2.575,5.689,5.734V1042.036z"/>
				</g>
				<g>
					<path style="fill:#F1F2F2;" d="M572.396,1042.036c0,3.159-2.547,5.715-5.68,5.715h-96.058c-3.133,0-5.68-2.557-5.68-5.715
						v-40.619c0-3.159,2.547-5.734,5.68-5.734h96.058c3.133,0,5.68,2.575,5.68,5.734V1042.036z"/>
				</g>
				<g>
					<path style="fill:#F1F2F2;" d="M457.874,1042.036c0,3.159-2.549,5.715-5.68,5.715h-96.059c-3.133,0-5.68-2.557-5.68-5.715
						v-40.619c0-3.159,2.547-5.734,5.68-5.734h96.059c3.131,0,5.68,2.575,5.68,5.734V1042.036z"/>
				</g>
				<g>
					<path style="fill:#F1F2F2;" d="M343.35,1042.036c0,3.159-2.538,5.715-5.68,5.715h-96.058c-3.133,0-5.68-2.557-5.68-5.715
						v-40.619c0-3.159,2.547-5.734,5.68-5.734h96.058c3.142,0,5.68,2.575,5.68,5.734V1042.036z"/>
				</g>
				<g>
					<path style="fill:#F1F2F2;" d="M228.828,1042.036c0,3.159-2.538,5.715-5.68,5.715h-96.05c-3.14,0-5.68-2.557-5.68-5.715
						v-40.619c0-3.159,2.539-5.734,5.68-5.734h96.05c3.142,0,5.68,2.575,5.68,5.734V1042.036z"/>
				</g>
				<g>
					<path style="fill:#F1F2F2;" d="M114.306,1042.036c0,3.159-2.54,5.715-5.68,5.715h-96.05c-3.142,0-5.68-2.557-5.68-5.715
						v-40.619c0-3.159,2.538-5.734,5.68-5.734h96.05c3.14,0,5.68,2.575,5.68,5.734V1042.036z"/>
				</g>
				<g>
					<path style="fill:#F1F2F2;" d="M-0.218,1042.036c0,3.159-2.538,5.715-5.68,5.715h-96.048c-3.142,0-5.68-2.557-5.68-5.715
						v-40.619c0-3.159,2.538-5.734,5.68-5.734h96.048c3.142,0,5.68,2.575,5.68,5.734V1042.036z"/>
				</g>
				<g>
					<path style="fill:#F1F2F2;" d="M1030.486,923.923c0,3.161-2.557,5.736-5.68,5.736H928.74c-3.123,0-5.68-2.575-5.68-5.736
						v-40.617c0-3.161,2.557-5.717,5.68-5.717h96.067c3.123,0,5.68,2.557,5.68,5.717V923.923z"/>
				</g>
				<g>
					<path style="fill:#F1F2F2;" d="M915.955,923.923c0,3.161-2.538,5.736-5.68,5.736h-96.048c-3.142,0-5.68-2.575-5.68-5.736
						v-40.617c0-3.161,2.538-5.717,5.68-5.717h96.048c3.142,0,5.68,2.557,5.68,5.717V923.923z"/>
				</g>
				<g>
					<path style="fill:#F1F2F2;" d="M801.433,923.923c0,3.161-2.54,5.736-5.68,5.736h-96.05c-3.14,0-5.68-2.575-5.68-5.736v-40.617
						c0-3.161,2.54-5.717,5.68-5.717h96.05c3.14,0,5.68,2.557,5.68,5.717V923.923z"/>
				</g>
				<g>
					<path style="fill:#F1F2F2;" d="M686.918,923.923c0,3.161-2.547,5.736-5.689,5.736h-96.048c-3.142,0-5.68-2.575-5.68-5.736
						v-40.617c0-3.161,2.538-5.717,5.68-5.717h96.048c3.142,0,5.689,2.557,5.689,5.717V923.923z"/>
				</g>
				<g>
					<path style="fill:#F1F2F2;" d="M572.396,923.923c0,3.161-2.547,5.736-5.68,5.736h-96.058c-3.133,0-5.68-2.575-5.68-5.736
						v-40.617c0-3.161,2.547-5.717,5.68-5.717h96.058c3.133,0,5.68,2.557,5.68,5.717V923.923z"/>
				</g>
				<g>
					<path style="fill:#F1F2F2;" d="M457.874,923.923c0,3.161-2.549,5.736-5.68,5.736h-96.059c-3.133,0-5.68-2.575-5.68-5.736
						v-40.617c0-3.161,2.547-5.717,5.68-5.717h96.059c3.131,0,5.68,2.557,5.68,5.717V923.923z"/>
				</g>
				<g>
					<path style="fill:#F1F2F2;" d="M343.35,923.923c0,3.161-2.538,5.736-5.68,5.736h-96.058c-3.133,0-5.68-2.575-5.68-5.736
						v-40.617c0-3.161,2.547-5.717,5.68-5.717h96.058c3.142,0,5.68,2.557,5.68,5.717V923.923z"/>
				</g>
				<g>
					<path style="fill:#F1F2F2;" d="M228.828,923.923c0,3.161-2.538,5.736-5.68,5.736h-96.05c-3.14,0-5.68-2.575-5.68-5.736v-40.617
						c0-3.161,2.539-5.717,5.68-5.717h96.05c3.142,0,5.68,2.557,5.68,5.717V923.923z"/>
				</g>
				<g>
					<path style="fill:#F1F2F2;" d="M114.306,923.923c0,3.161-2.54,5.736-5.68,5.736h-96.05c-3.142,0-5.68-2.575-5.68-5.736v-40.617
						c0-3.161,2.538-5.717,5.68-5.717h96.05c3.14,0,5.68,2.557,5.68,5.717V923.923z"/>
				</g>
				<g>
					<path style="fill:#F1F2F2;" d="M-0.218,923.923c0,3.161-2.538,5.736-5.68,5.736h-96.048c-3.142,0-5.68-2.575-5.68-5.736
						v-40.617c0-3.161,2.538-5.717,5.68-5.717h96.048c3.142,0,5.68,2.557,5.68,5.717V923.923z"/>
				</g>
				<g>
					<path style="fill:#F1F2F2;" d="M1030.486,805.83c0,3.159-2.557,5.717-5.68,5.717H928.74c-3.123,0-5.68-2.558-5.68-5.717
						v-40.619c0-3.159,2.557-5.734,5.68-5.734h96.067c3.123,0,5.68,2.575,5.68,5.734V805.83z"/>
				</g>
				<g>
					<path style="fill:#F1F2F2;" d="M915.955,805.83c0,3.159-2.538,5.717-5.68,5.717h-96.048c-3.142,0-5.68-2.558-5.68-5.717
						v-40.619c0-3.159,2.538-5.734,5.68-5.734h96.048c3.142,0,5.68,2.575,5.68,5.734V805.83z"/>
				</g>
				<g>
					<path style="fill:#F1F2F2;" d="M801.433,805.83c0,3.159-2.54,5.717-5.68,5.717h-96.05c-3.14,0-5.68-2.558-5.68-5.717v-40.619
						c0-3.159,2.54-5.734,5.68-5.734h96.05c3.14,0,5.68,2.575,5.68,5.734V805.83z"/>
				</g>
				<g>
					<path style="fill:#F1F2F2;" d="M686.918,805.83c0,3.159-2.547,5.717-5.689,5.717h-96.048c-3.142,0-5.68-2.558-5.68-5.717
						v-40.619c0-3.159,2.538-5.734,5.68-5.734h96.048c3.142,0,5.689,2.575,5.689,5.734V805.83z"/>
				</g>
				<g>
					<path style="fill:#F1F2F2;" d="M572.396,805.83c0,3.159-2.547,5.717-5.68,5.717h-96.058c-3.133,0-5.68-2.558-5.68-5.717
						v-40.619c0-3.159,2.547-5.734,5.68-5.734h96.058c3.133,0,5.68,2.575,5.68,5.734V805.83z"/>
				</g>
				<g>
					<path style="fill:#F1F2F2;" d="M457.874,805.83c0,3.159-2.549,5.717-5.68,5.717h-96.059c-3.133,0-5.68-2.558-5.68-5.717
						v-40.619c0-3.159,2.547-5.734,5.68-5.734h96.059c3.131,0,5.68,2.575,5.68,5.734V805.83z"/>
				</g>
				<g>
					<path style="fill:#F1F2F2;" d="M343.35,805.83c0,3.159-2.538,5.717-5.68,5.717h-96.058c-3.133,0-5.68-2.558-5.68-5.717v-40.619
						c0-3.159,2.547-5.734,5.68-5.734h96.058c3.142,0,5.68,2.575,5.68,5.734V805.83z"/>
				</g>
				<g>
					<path style="fill:#F1F2F2;" d="M228.828,805.83c0,3.159-2.538,5.717-5.68,5.717h-96.05c-3.14,0-5.68-2.558-5.68-5.717v-40.619
						c0-3.159,2.539-5.734,5.68-5.734h96.05c3.142,0,5.68,2.575,5.68,5.734V805.83z"/>
				</g>
				<g>
					<path style="fill:#F1F2F2;" d="M114.306,805.83c0,3.159-2.54,5.717-5.68,5.717h-96.05c-3.142,0-5.68-2.558-5.68-5.717v-40.619
						c0-3.159,2.538-5.734,5.68-5.734h96.05c3.14,0,5.68,2.575,5.68,5.734V805.83z"/>
				</g>
				<g>
					<path style="fill:#F1F2F2;" d="M-0.218,805.83c0,3.159-2.538,5.717-5.68,5.717h-96.048c-3.142,0-5.68-2.558-5.68-5.717v-40.619
						c0-3.159,2.538-5.734,5.68-5.734h96.048c3.142,0,5.68,2.575,5.68,5.734V805.83z"/>
				</g>
				<g>
					<path style="fill:#F1F2F2;" d="M1030.486,687.719c0,3.159-2.557,5.734-5.68,5.734H928.74c-3.123,0-5.68-2.575-5.68-5.734V647.1
						c0-3.161,2.557-5.717,5.68-5.717h96.067c3.123,0,5.68,2.557,5.68,5.717V687.719z"/>
				</g>
				<g>
					<path style="fill:#F1F2F2;" d="M915.955,687.719c0,3.159-2.538,5.734-5.68,5.734h-96.048c-3.142,0-5.68-2.575-5.68-5.734V647.1
						c0-3.161,2.538-5.717,5.68-5.717h96.048c3.142,0,5.68,2.557,5.68,5.717V687.719z"/>
				</g>
				<g>
					<path style="fill:#F1F2F2;" d="M801.433,687.719c0,3.159-2.54,5.734-5.68,5.734h-96.05c-3.14,0-5.68-2.575-5.68-5.734V647.1
						c0-3.161,2.54-5.717,5.68-5.717h96.05c3.14,0,5.68,2.557,5.68,5.717V687.719z"/>
				</g>
				<g>
					<path style="fill:#F1F2F2;" d="M686.918,687.719c0,3.159-2.547,5.734-5.689,5.734h-96.048c-3.142,0-5.68-2.575-5.68-5.734
						V647.1c0-3.161,2.538-5.717,5.68-5.717h96.048c3.142,0,5.689,2.557,5.689,5.717V687.719z"/>
				</g>
				<g>
					<path style="fill:#F1F2F2;" d="M572.396,687.719c0,3.159-2.547,5.734-5.68,5.734h-96.058c-3.133,0-5.68-2.575-5.68-5.734V647.1
						c0-3.161,2.547-5.717,5.68-5.717h96.058c3.133,0,5.68,2.557,5.68,5.717V687.719z"/>
				</g>
				<g>
					<path style="fill:#F1F2F2;" d="M457.874,687.719c0,3.159-2.549,5.734-5.68,5.734h-96.059c-3.133,0-5.68-2.575-5.68-5.734V647.1
						c0-3.161,2.547-5.717,5.68-5.717h96.059c3.131,0,5.68,2.557,5.68,5.717V687.719z"/>
				</g>
				<g>
					<path style="fill:#F1F2F2;" d="M343.35,687.719c0,3.159-2.538,5.734-5.68,5.734h-96.058c-3.133,0-5.68-2.575-5.68-5.734V647.1
						c0-3.161,2.547-5.717,5.68-5.717h96.058c3.142,0,5.68,2.557,5.68,5.717V687.719z"/>
				</g>
				<g>
					<path style="fill:#F1F2F2;" d="M228.828,687.719c0,3.159-2.538,5.734-5.68,5.734h-96.05c-3.14,0-5.68-2.575-5.68-5.734V647.1
						c0-3.161,2.539-5.717,5.68-5.717h96.05c3.142,0,5.68,2.557,5.68,5.717V687.719z"/>
				</g>
				<g>
					<path style="fill:#F1F2F2;" d="M114.306,687.719c0,3.159-2.54,5.734-5.68,5.734h-96.05c-3.142,0-5.68-2.575-5.68-5.734V647.1
						c0-3.161,2.538-5.717,5.68-5.717h96.05c3.14,0,5.68,2.557,5.68,5.717V687.719z"/>
				</g>
				<g>
					<path style="fill:#F1F2F2;" d="M-0.218,687.719c0,3.159-2.538,5.734-5.68,5.734h-96.048c-3.142,0-5.68-2.575-5.68-5.734V647.1
						c0-3.161,2.538-5.717,5.68-5.717h96.048c3.142,0,5.68,2.557,5.68,5.717V687.719z"/>
				</g>
				<g>
					<path style="fill:#F1F2F2;" d="M1030.486,569.625c0,3.161-2.557,5.717-5.68,5.717H928.74c-3.123,0-5.68-2.557-5.68-5.717
						v-40.619c0-3.159,2.557-5.734,5.68-5.734h96.067c3.123,0,5.68,2.575,5.68,5.734V569.625z"/>
				</g>
				<g>
					<path style="fill:#F1F2F2;" d="M915.955,569.625c0,3.161-2.538,5.717-5.68,5.717h-96.048c-3.142,0-5.68-2.557-5.68-5.717
						v-40.619c0-3.159,2.538-5.734,5.68-5.734h96.048c3.142,0,5.68,2.575,5.68,5.734V569.625z"/>
				</g>
				<g>
					<path style="fill:#F1F2F2;" d="M801.433,569.625c0,3.161-2.54,5.717-5.68,5.717h-96.05c-3.14,0-5.68-2.557-5.68-5.717v-40.619
						c0-3.159,2.54-5.734,5.68-5.734h96.05c3.14,0,5.68,2.575,5.68,5.734V569.625z"/>
				</g>
				<g>
					<path style="fill:#F1F2F2;" d="M686.918,569.625c0,3.161-2.547,5.717-5.689,5.717h-96.048c-3.142,0-5.68-2.557-5.68-5.717
						v-40.619c0-3.159,2.538-5.734,5.68-5.734h96.048c3.142,0,5.689,2.575,5.689,5.734V569.625z"/>
				</g>
				<g>
					<path style="fill:#F1F2F2;" d="M572.396,569.625c0,3.161-2.547,5.717-5.68,5.717h-96.058c-3.133,0-5.68-2.557-5.68-5.717
						v-40.619c0-3.159,2.547-5.734,5.68-5.734h96.058c3.133,0,5.68,2.575,5.68,5.734V569.625z"/>
				</g>
				<g>
					<path style="fill:#F1F2F2;" d="M457.874,569.625c0,3.161-2.549,5.717-5.68,5.717h-96.059c-3.133,0-5.68-2.557-5.68-5.717
						v-40.619c0-3.159,2.547-5.734,5.68-5.734h96.059c3.131,0,5.68,2.575,5.68,5.734V569.625z"/>
				</g>
				<g>
					<path style="fill:#F1F2F2;" d="M343.35,569.625c0,3.161-2.538,5.717-5.68,5.717h-96.058c-3.133,0-5.68-2.557-5.68-5.717
						v-40.619c0-3.159,2.547-5.734,5.68-5.734h96.058c3.142,0,5.68,2.575,5.68,5.734V569.625z"/>
				</g>
				<g>
					<path style="fill:#F1F2F2;" d="M228.828,569.625c0,3.161-2.538,5.717-5.68,5.717h-96.05c-3.14,0-5.68-2.557-5.68-5.717v-40.619
						c0-3.159,2.539-5.734,5.68-5.734h96.05c3.142,0,5.68,2.575,5.68,5.734V569.625z"/>
				</g>
				<g>
					<path style="fill:#F1F2F2;" d="M114.306,569.625c0,3.161-2.54,5.717-5.68,5.717h-96.05c-3.142,0-5.68-2.557-5.68-5.717v-40.619
						c0-3.159,2.538-5.734,5.68-5.734h96.05c3.14,0,5.68,2.575,5.68,5.734V569.625z"/>
				</g>
				<g>
					<path style="fill:#F1F2F2;" d="M-0.218,569.625c0,3.161-2.538,5.717-5.68,5.717h-96.048c-3.142,0-5.68-2.557-5.68-5.717
						v-40.619c0-3.159,2.538-5.734,5.68-5.734h96.048c3.142,0,5.68,2.575,5.68,5.734V569.625z"/>
				</g>
				<g>
					<path style="fill:#F1F2F2;" d="M1030.486,451.514c0,3.159-2.557,5.734-5.68,5.734H928.74c-3.123,0-5.68-2.575-5.68-5.734
						v-40.619c0-3.159,2.557-5.717,5.68-5.717h96.067c3.123,0,5.68,2.558,5.68,5.717V451.514z"/>
				</g>
				<g>
					<path style="fill:#F1F2F2;" d="M915.955,451.514c0,3.159-2.538,5.734-5.68,5.734h-96.048c-3.142,0-5.68-2.575-5.68-5.734
						v-40.619c0-3.159,2.538-5.717,5.68-5.717h96.048c3.142,0,5.68,2.558,5.68,5.717V451.514z"/>
				</g>
				<g>
					<path style="fill:#F1F2F2;" d="M801.433,451.514c0,3.159-2.54,5.734-5.68,5.734h-96.05c-3.14,0-5.68-2.575-5.68-5.734v-40.619
						c0-3.159,2.54-5.717,5.68-5.717h96.05c3.14,0,5.68,2.558,5.68,5.717V451.514z"/>
				</g>
				<g>
					<path style="fill:#F1F2F2;" d="M686.918,451.514c0,3.159-2.547,5.734-5.689,5.734h-96.048c-3.142,0-5.68-2.575-5.68-5.734
						v-40.619c0-3.159,2.538-5.717,5.68-5.717h96.048c3.142,0,5.689,2.558,5.689,5.717V451.514z"/>
				</g>
				<g>
					<path style="fill:#F1F2F2;" d="M572.396,451.514c0,3.159-2.547,5.734-5.68,5.734h-96.058c-3.133,0-5.68-2.575-5.68-5.734
						v-40.619c0-3.159,2.547-5.717,5.68-5.717h96.058c3.133,0,5.68,2.558,5.68,5.717V451.514z"/>
				</g>
				<g>
					<path style="fill:#F1F2F2;" d="M457.874,451.514c0,3.159-2.549,5.734-5.68,5.734h-96.059c-3.133,0-5.68-2.575-5.68-5.734
						v-40.619c0-3.159,2.547-5.717,5.68-5.717h96.059c3.131,0,5.68,2.558,5.68,5.717V451.514z"/>
				</g>
				<g>
					<path style="fill:#F1F2F2;" d="M343.35,451.514c0,3.159-2.538,5.734-5.68,5.734h-96.058c-3.133,0-5.68-2.575-5.68-5.734
						v-40.619c0-3.159,2.547-5.717,5.68-5.717h96.058c3.142,0,5.68,2.558,5.68,5.717V451.514z"/>
				</g>
				<g>
					<path style="fill:#F1F2F2;" d="M228.828,451.514c0,3.159-2.538,5.734-5.68,5.734h-96.05c-3.14,0-5.68-2.575-5.68-5.734v-40.619
						c0-3.159,2.539-5.717,5.68-5.717h96.05c3.142,0,5.68,2.558,5.68,5.717V451.514z"/>
				</g>
				<g>
					<path style="fill:#F1F2F2;" d="M114.306,451.514c0,3.159-2.54,5.734-5.68,5.734h-96.05c-3.142,0-5.68-2.575-5.68-5.734v-40.619
						c0-3.159,2.538-5.717,5.68-5.717h96.05c3.14,0,5.68,2.558,5.68,5.717V451.514z"/>
				</g>
				<g>
					<path style="fill:#F1F2F2;" d="M-0.218,451.514c0,3.159-2.538,5.734-5.68,5.734h-96.048c-3.142,0-5.68-2.575-5.68-5.734
						v-40.619c0-3.159,2.538-5.717,5.68-5.717h96.048c3.142,0,5.68,2.558,5.68,5.717V451.514z"/>
				</g>
				<g>
					<path style="fill:#F1F2F2;" d="M1030.486,333.42c0,3.161-2.557,5.717-5.68,5.717H928.74c-3.123,0-5.68-2.557-5.68-5.717
						v-40.619c0-3.159,2.557-5.734,5.68-5.734h96.067c3.123,0,5.68,2.575,5.68,5.734V333.42z"/>
				</g>
				<g>
					<path style="fill:#F1F2F2;" d="M915.955,333.42c0,3.161-2.538,5.717-5.68,5.717h-96.048c-3.142,0-5.68-2.557-5.68-5.717
						v-40.619c0-3.159,2.538-5.734,5.68-5.734h96.048c3.142,0,5.68,2.575,5.68,5.734V333.42z"/>
				</g>
				<g>
					<path style="fill:#F1F2F2;" d="M801.433,333.42c0,3.161-2.54,5.717-5.68,5.717h-96.05c-3.14,0-5.68-2.557-5.68-5.717v-40.619
						c0-3.159,2.54-5.734,5.68-5.734h96.05c3.14,0,5.68,2.575,5.68,5.734V333.42z"/>
				</g>
				<g>
					<path style="fill:#F1F2F2;" d="M686.918,333.42c0,3.161-2.547,5.717-5.689,5.717h-96.048c-3.142,0-5.68-2.557-5.68-5.717
						v-40.619c0-3.159,2.538-5.734,5.68-5.734h96.048c3.142,0,5.689,2.575,5.689,5.734V333.42z"/>
				</g>
				<g>
					<path style="fill:#F1F2F2;" d="M572.396,333.42c0,3.161-2.547,5.717-5.68,5.717h-96.058c-3.133,0-5.68-2.557-5.68-5.717
						v-40.619c0-3.159,2.547-5.734,5.68-5.734h96.058c3.133,0,5.68,2.575,5.68,5.734V333.42z"/>
				</g>
				<g>
					<path style="fill:#F1F2F2;" d="M457.874,333.42c0,3.161-2.549,5.717-5.68,5.717h-96.059c-3.133,0-5.68-2.557-5.68-5.717
						v-40.619c0-3.159,2.547-5.734,5.68-5.734h96.059c3.131,0,5.68,2.575,5.68,5.734V333.42z"/>
				</g>
				<g>
					<path style="fill:#F1F2F2;" d="M343.35,333.42c0,3.161-2.538,5.717-5.68,5.717h-96.058c-3.133,0-5.68-2.557-5.68-5.717v-40.619
						c0-3.159,2.547-5.734,5.68-5.734h96.058c3.142,0,5.68,2.575,5.68,5.734V333.42z"/>
				</g>
				<g>
					<path style="fill:#F1F2F2;" d="M228.828,333.42c0,3.161-2.538,5.717-5.68,5.717h-96.05c-3.14,0-5.68-2.557-5.68-5.717v-40.619
						c0-3.159,2.539-5.734,5.68-5.734h96.05c3.142,0,5.68,2.575,5.68,5.734V333.42z"/>
				</g>
				<g>
					<path style="fill:#F1F2F2;" d="M114.306,333.42c0,3.161-2.54,5.717-5.68,5.717h-96.05c-3.142,0-5.68-2.557-5.68-5.717v-40.619
						c0-3.159,2.538-5.734,5.68-5.734h96.05c3.14,0,5.68,2.575,5.68,5.734V333.42z"/>
				</g>
				<g>
					<path style="fill:#F1F2F2;" d="M-0.218,333.42c0,3.161-2.538,5.717-5.68,5.717h-96.048c-3.142,0-5.68-2.557-5.68-5.717v-40.619
						c0-3.159,2.538-5.734,5.68-5.734h96.048c3.142,0,5.68,2.575,5.68,5.734V333.42z"/>
				</g>
				<g>
					<path style="fill:#F1F2F2;" d="M1030.486,215.309c0,3.159-2.557,5.734-5.68,5.734H928.74c-3.123,0-5.68-2.575-5.68-5.734
						V174.69c0-3.159,2.557-5.715,5.68-5.715h96.067c3.123,0,5.68,2.557,5.68,5.715V215.309z"/>
				</g>
				<g>
					<path style="fill:#F1F2F2;" d="M915.955,215.309c0,3.159-2.538,5.734-5.68,5.734h-96.048c-3.142,0-5.68-2.575-5.68-5.734
						V174.69c0-3.159,2.538-5.715,5.68-5.715h96.048c3.142,0,5.68,2.557,5.68,5.715V215.309z"/>
				</g>
				<g>
					<path style="fill:#F1F2F2;" d="M801.433,215.309c0,3.159-2.54,5.734-5.68,5.734h-96.05c-3.14,0-5.68-2.575-5.68-5.734V174.69
						c0-3.159,2.54-5.715,5.68-5.715h96.05c3.14,0,5.68,2.557,5.68,5.715V215.309z"/>
				</g>
				<g>
					<path style="fill:#F1F2F2;" d="M686.918,215.309c0,3.159-2.547,5.734-5.689,5.734h-96.048c-3.142,0-5.68-2.575-5.68-5.734
						V174.69c0-3.159,2.538-5.715,5.68-5.715h96.048c3.142,0,5.689,2.557,5.689,5.715V215.309z"/>
				</g>
				<g>
					<path style="fill:#F1F2F2;" d="M572.396,215.309c0,3.159-2.547,5.734-5.68,5.734h-96.058c-3.133,0-5.68-2.575-5.68-5.734
						V174.69c0-3.159,2.547-5.715,5.68-5.715h96.058c3.133,0,5.68,2.557,5.68,5.715V215.309z"/>
				</g>
				<g>
					<path style="fill:#F1F2F2;" d="M457.874,215.309c0,3.159-2.549,5.734-5.68,5.734h-96.059c-3.133,0-5.68-2.575-5.68-5.734
						V174.69c0-3.159,2.547-5.715,5.68-5.715h96.059c3.131,0,5.68,2.557,5.68,5.715V215.309z"/>
				</g>
				<g>
					<path style="fill:#F1F2F2;" d="M343.35,215.309c0,3.159-2.538,5.734-5.68,5.734h-96.058c-3.133,0-5.68-2.575-5.68-5.734V174.69
						c0-3.159,2.547-5.715,5.68-5.715h96.058c3.142,0,5.68,2.557,5.68,5.715V215.309z"/>
				</g>
				<g>
					<path style="fill:#F1F2F2;" d="M228.828,215.309c0,3.159-2.538,5.734-5.68,5.734h-96.05c-3.14,0-5.68-2.575-5.68-5.734V174.69
						c0-3.159,2.539-5.715,5.68-5.715h96.05c3.142,0,5.68,2.557,5.68,5.715V215.309z"/>
				</g>
				<g>
					<path style="fill:#F1F2F2;" d="M114.306,215.309c0,3.159-2.54,5.734-5.68,5.734h-96.05c-3.142,0-5.68-2.575-5.68-5.734V174.69
						c0-3.159,2.538-5.715,5.68-5.715h96.05c3.14,0,5.68,2.557,5.68,5.715V215.309z"/>
				</g>
				<g>
					<path style="fill:#F1F2F2;" d="M-0.218,215.309c0,3.159-2.538,5.734-5.68,5.734h-96.048c-3.142,0-5.68-2.575-5.68-5.734V174.69
						c0-3.159,2.538-5.715,5.68-5.715h96.048c3.142,0,5.68,2.557,5.68,5.715V215.309z"/>
				</g>
				<g>
					<path style="fill:#F1F2F2;" d="M1030.486,97.207c0,3.159-2.557,5.725-5.68,5.725H928.74c-3.123,0-5.68-2.566-5.68-5.725V56.588
						c0-3.161,2.557-5.717,5.68-5.717h96.067c3.123,0,5.68,2.557,5.68,5.717V97.207z"/>
				</g>
				<g>
					<path style="fill:#F1F2F2;" d="M915.955,97.207c0,3.159-2.538,5.725-5.68,5.725h-96.048c-3.142,0-5.68-2.566-5.68-5.725V56.588
						c0-3.161,2.538-5.717,5.68-5.717h96.048c3.142,0,5.68,2.557,5.68,5.717V97.207z"/>
				</g>
				<g>
					<path style="fill:#F1F2F2;" d="M801.433,97.207c0,3.159-2.54,5.725-5.68,5.725h-96.05c-3.14,0-5.68-2.566-5.68-5.725V56.588
						c0-3.161,2.54-5.717,5.68-5.717h96.05c3.14,0,5.68,2.557,5.68,5.717V97.207z"/>
				</g>
				<g>
					<path style="fill:#F1F2F2;" d="M686.918,97.207c0,3.159-2.547,5.725-5.689,5.725h-96.048c-3.142,0-5.68-2.566-5.68-5.725
						V56.588c0-3.161,2.538-5.717,5.68-5.717h96.048c3.142,0,5.689,2.557,5.689,5.717V97.207z"/>
				</g>
				<g>
					<path style="fill:#F1F2F2;" d="M572.396,97.207c0,3.159-2.547,5.725-5.68,5.725h-96.058c-3.133,0-5.68-2.566-5.68-5.725V56.588
						c0-3.161,2.547-5.717,5.68-5.717h96.058c3.133,0,5.68,2.557,5.68,5.717V97.207z"/>
				</g>
				<g>
					<path style="fill:#F1F2F2;" d="M457.874,97.207c0,3.159-2.549,5.725-5.68,5.725h-96.059c-3.133,0-5.68-2.566-5.68-5.725V56.588
						c0-3.161,2.547-5.717,5.68-5.717h96.059c3.131,0,5.68,2.557,5.68,5.717V97.207z"/>
				</g>
				<g>
					<path style="fill:#F1F2F2;" d="M343.35,97.207c0,3.159-2.538,5.725-5.68,5.725h-96.058c-3.133,0-5.68-2.566-5.68-5.725V56.588
						c0-3.161,2.547-5.717,5.68-5.717h96.058c3.142,0,5.68,2.557,5.68,5.717V97.207z"/>
				</g>
				<g>
					<path style="fill:#F1F2F2;" d="M228.828,97.207c0,3.159-2.538,5.725-5.68,5.725h-96.05c-3.14,0-5.68-2.566-5.68-5.725V56.588
						c0-3.161,2.539-5.717,5.68-5.717h96.05c3.142,0,5.68,2.557,5.68,5.717V97.207z"/>
				</g>
				<g>
					<path style="fill:#F1F2F2;" d="M114.306,97.207c0,3.159-2.54,5.725-5.68,5.725h-96.05c-3.142,0-5.68-2.566-5.68-5.725V56.588
						c0-3.161,2.538-5.717,5.68-5.717h96.05c3.14,0,5.68,2.557,5.68,5.717V97.207z"/>
				</g>
				<g>
					<path style="fill:#F1F2F2;" d="M-0.218,97.207c0,3.159-2.538,5.725-5.68,5.725h-96.048c-3.142,0-5.68-2.566-5.68-5.725V56.588
						c0-3.161,2.538-5.717,5.68-5.717h96.048c3.142,0,5.68,2.557,5.68,5.717V97.207z"/>
				</g>
				<g>
					<path style="fill:#F1F2F2;" d="M1087.745,1099.821c0,3.161-2.54,5.717-5.68,5.717h-96.068c-3.123,0-5.661-2.557-5.661-5.717
						v-40.619c0-3.159,2.538-5.734,5.661-5.734h96.068c3.14,0,5.68,2.575,5.68,5.734V1099.821z"/>
				</g>
				<g>
					<path style="fill:#F1F2F2;" d="M973.211,1099.821c0,3.161-2.538,5.717-5.68,5.717h-96.048c-3.142,0-5.68-2.557-5.68-5.717
						v-40.619c0-3.159,2.538-5.734,5.68-5.734h96.048c3.142,0,5.68,2.575,5.68,5.734V1099.821z"/>
				</g>
				<g>
					<path style="fill:#F1F2F2;" d="M858.699,1099.821c0,3.161-2.538,5.717-5.68,5.717h-96.058c-3.132,0-5.682-2.557-5.682-5.717
						v-40.619c0-3.159,2.549-5.734,5.682-5.734h96.058c3.142,0,5.68,2.575,5.68,5.734V1099.821z"/>
				</g>
				<g>
					<path style="fill:#F1F2F2;" d="M744.177,1099.821c0,3.161-2.549,5.717-5.68,5.717h-96.059c-3.133,0-5.68-2.557-5.68-5.717
						v-40.619c0-3.159,2.547-5.734,5.68-5.734h96.059c3.131,0,5.68,2.575,5.68,5.734V1099.821z"/>
				</g>
				<g>
					<path style="fill:#F1F2F2;" d="M629.653,1099.821c0,3.161-2.538,5.717-5.68,5.717h-96.058c-3.133,0-5.68-2.557-5.68-5.717
						v-40.619c0-3.159,2.547-5.734,5.68-5.734h96.058c3.142,0,5.68,2.575,5.68,5.734V1099.821z"/>
				</g>
				<g>
					<path style="fill:#F1F2F2;" d="M515.13,1099.821c0,3.161-2.538,5.717-5.68,5.717h-96.05c-3.14,0-5.68-2.557-5.68-5.717v-40.619
						c0-3.159,2.54-5.734,5.68-5.734h96.05c3.142,0,5.68,2.575,5.68,5.734V1099.821z"/>
				</g>
				<g>
					<path style="fill:#F1F2F2;" d="M400.608,1099.821c0,3.161-2.54,5.717-5.682,5.717h-96.048c-3.142,0-5.68-2.557-5.68-5.717
						v-40.619c0-3.159,2.538-5.734,5.68-5.734h96.048c3.142,0,5.682,2.575,5.682,5.734V1099.821z"/>
				</g>
				<g>
					<path style="fill:#F1F2F2;" d="M286.094,1099.821c0,3.161-2.547,5.717-5.689,5.717h-96.048c-3.142,0-5.68-2.557-5.68-5.717
						v-40.619c0-3.159,2.538-5.734,5.68-5.734h96.048c3.142,0,5.689,2.575,5.689,5.734V1099.821z"/>
				</g>
				<g>
					<path style="fill:#F1F2F2;" d="M171.572,1099.821c0,3.161-2.549,5.717-5.68,5.717h-96.06c-3.131,0-5.68-2.557-5.68-5.717
						v-40.619c0-3.159,2.549-5.734,5.68-5.734h96.06c3.13,0,5.68,2.575,5.68,5.734V1099.821z"/>
				</g>
				<g>
					<path style="fill:#F1F2F2;" d="M57.048,1099.821c0,3.161-2.547,5.717-5.68,5.717H-44.69c-3.133,0-5.68-2.557-5.68-5.717
						v-40.619c0-3.159,2.547-5.734,5.68-5.734h96.058c3.133,0,5.68,2.575,5.68,5.734V1099.821z"/>
				</g>
				<g>
					<path style="fill:#F1F2F2;" d="M1087.745,981.71c0,3.159-2.54,5.717-5.68,5.717h-96.068c-3.123,0-5.661-2.558-5.661-5.717
						v-40.619c0-3.159,2.538-5.717,5.661-5.717h96.068c3.14,0,5.68,2.558,5.68,5.717V981.71z"/>
				</g>
				<g>
					<path style="fill:#F1F2F2;" d="M973.211,981.71c0,3.159-2.538,5.717-5.68,5.717h-96.048c-3.142,0-5.68-2.558-5.68-5.717
						v-40.619c0-3.159,2.538-5.717,5.68-5.717h96.048c3.142,0,5.68,2.558,5.68,5.717V981.71z"/>
				</g>
				<g>
					<path style="fill:#F1F2F2;" d="M858.699,981.71c0,3.159-2.538,5.717-5.68,5.717h-96.058c-3.132,0-5.682-2.558-5.682-5.717
						v-40.619c0-3.159,2.549-5.717,5.682-5.717h96.058c3.142,0,5.68,2.558,5.68,5.717V981.71z"/>
				</g>
				<g>
					<path style="fill:#F1F2F2;" d="M744.177,981.71c0,3.159-2.549,5.717-5.68,5.717h-96.059c-3.133,0-5.68-2.558-5.68-5.717
						v-40.619c0-3.159,2.547-5.717,5.68-5.717h96.059c3.131,0,5.68,2.558,5.68,5.717V981.71z"/>
				</g>
				<g>
					<path style="fill:#F1F2F2;" d="M629.653,981.71c0,3.159-2.538,5.717-5.68,5.717h-96.058c-3.133,0-5.68-2.558-5.68-5.717
						v-40.619c0-3.159,2.547-5.717,5.68-5.717h96.058c3.142,0,5.68,2.558,5.68,5.717V981.71z"/>
				</g>
				<g>
					<path style="fill:#F1F2F2;" d="M515.13,981.71c0,3.159-2.538,5.717-5.68,5.717h-96.05c-3.14,0-5.68-2.558-5.68-5.717v-40.619
						c0-3.159,2.54-5.717,5.68-5.717h96.05c3.142,0,5.68,2.558,5.68,5.717V981.71z"/>
				</g>
				<g>
					<path style="fill:#F1F2F2;" d="M400.608,981.71c0,3.159-2.54,5.717-5.682,5.717h-96.048c-3.142,0-5.68-2.558-5.68-5.717
						v-40.619c0-3.159,2.538-5.717,5.68-5.717h96.048c3.142,0,5.682,2.558,5.682,5.717V981.71z"/>
				</g>
				<g>
					<path style="fill:#F1F2F2;" d="M286.094,981.71c0,3.159-2.547,5.717-5.689,5.717h-96.048c-3.142,0-5.68-2.558-5.68-5.717
						v-40.619c0-3.159,2.538-5.717,5.68-5.717h96.048c3.142,0,5.689,2.558,5.689,5.717V981.71z"/>
				</g>
				<g>
					<path style="fill:#F1F2F2;" d="M171.572,981.71c0,3.159-2.549,5.717-5.68,5.717h-96.06c-3.131,0-5.68-2.558-5.68-5.717v-40.619
						c0-3.159,2.549-5.717,5.68-5.717h96.06c3.13,0,5.68,2.558,5.68,5.717V981.71z"/>
				</g>
				<g>
					<path style="fill:#F1F2F2;" d="M57.048,981.71c0,3.159-2.547,5.717-5.68,5.717H-44.69c-3.133,0-5.68-2.558-5.68-5.717v-40.619
						c0-3.159,2.547-5.717,5.68-5.717h96.058c3.133,0,5.68,2.558,5.68,5.717V981.71z"/>
				</g>
				<g>
					<path style="fill:#F1F2F2;" d="M1087.745,863.616c0,3.161-2.54,5.717-5.68,5.717h-96.068c-3.123,0-5.661-2.557-5.661-5.717
						v-40.617c0-3.161,2.538-5.736,5.661-5.736h96.068c3.14,0,5.68,2.575,5.68,5.736V863.616z"/>
				</g>
				<g>
					<path style="fill:#F1F2F2;" d="M973.211,863.616c0,3.161-2.538,5.717-5.68,5.717h-96.048c-3.142,0-5.68-2.557-5.68-5.717
						v-40.617c0-3.161,2.538-5.736,5.68-5.736h96.048c3.142,0,5.68,2.575,5.68,5.736V863.616z"/>
				</g>
				<g>
					<path style="fill:#F1F2F2;" d="M858.699,863.616c0,3.161-2.538,5.717-5.68,5.717h-96.058c-3.132,0-5.682-2.557-5.682-5.717
						v-40.617c0-3.161,2.549-5.736,5.682-5.736h96.058c3.142,0,5.68,2.575,5.68,5.736V863.616z"/>
				</g>
				<g>
					<path style="fill:#F1F2F2;" d="M744.177,863.616c0,3.161-2.549,5.717-5.68,5.717h-96.059c-3.133,0-5.68-2.557-5.68-5.717
						v-40.617c0-3.161,2.547-5.736,5.68-5.736h96.059c3.131,0,5.68,2.575,5.68,5.736V863.616z"/>
				</g>
				<g>
					<path style="fill:#F1F2F2;" d="M629.653,863.616c0,3.161-2.538,5.717-5.68,5.717h-96.058c-3.133,0-5.68-2.557-5.68-5.717
						v-40.617c0-3.161,2.547-5.736,5.68-5.736h96.058c3.142,0,5.68,2.575,5.68,5.736V863.616z"/>
				</g>
				<g>
					<path style="fill:#F1F2F2;" d="M515.13,863.616c0,3.161-2.538,5.717-5.68,5.717h-96.05c-3.14,0-5.68-2.557-5.68-5.717v-40.617
						c0-3.161,2.54-5.736,5.68-5.736h96.05c3.142,0,5.68,2.575,5.68,5.736V863.616z"/>
				</g>
				<g>
					<path style="fill:#F1F2F2;" d="M400.608,863.616c0,3.161-2.54,5.717-5.682,5.717h-96.048c-3.142,0-5.68-2.557-5.68-5.717
						v-40.617c0-3.161,2.538-5.736,5.68-5.736h96.048c3.142,0,5.682,2.575,5.682,5.736V863.616z"/>
				</g>
				<g>
					<path style="fill:#F1F2F2;" d="M286.094,863.616c0,3.161-2.547,5.717-5.689,5.717h-96.048c-3.142,0-5.68-2.557-5.68-5.717
						v-40.617c0-3.161,2.538-5.736,5.68-5.736h96.048c3.142,0,5.689,2.575,5.689,5.736V863.616z"/>
				</g>
				<g>
					<path style="fill:#F1F2F2;" d="M171.572,863.616c0,3.161-2.549,5.717-5.68,5.717h-96.06c-3.131,0-5.68-2.557-5.68-5.717
						v-40.617c0-3.161,2.549-5.736,5.68-5.736h96.06c3.13,0,5.68,2.575,5.68,5.736V863.616z"/>
				</g>
				<g>
					<path style="fill:#F1F2F2;" d="M57.048,863.616c0,3.161-2.547,5.717-5.68,5.717H-44.69c-3.133,0-5.68-2.557-5.68-5.717v-40.617
						c0-3.161,2.547-5.736,5.68-5.736h96.058c3.133,0,5.68,2.575,5.68,5.736V863.616z"/>
				</g>
				<g>
					<path style="fill:#F1F2F2;" d="M1087.745,745.505c0,3.159-2.54,5.734-5.68,5.734h-96.068c-3.123,0-5.661-2.575-5.661-5.734
						v-40.619c0-3.159,2.538-5.715,5.661-5.715h96.068c3.14,0,5.68,2.557,5.68,5.715V745.505z"/>
				</g>
				<g>
					<path style="fill:#F1F2F2;" d="M973.211,745.505c0,3.159-2.538,5.734-5.68,5.734h-96.048c-3.142,0-5.68-2.575-5.68-5.734
						v-40.619c0-3.159,2.538-5.715,5.68-5.715h96.048c3.142,0,5.68,2.557,5.68,5.715V745.505z"/>
				</g>
				<g>
					<path style="fill:#F1F2F2;" d="M858.699,745.505c0,3.159-2.538,5.734-5.68,5.734h-96.058c-3.132,0-5.682-2.575-5.682-5.734
						v-40.619c0-3.159,2.549-5.715,5.682-5.715h96.058c3.142,0,5.68,2.557,5.68,5.715V745.505z"/>
				</g>
				<g>
					<path style="fill:#F1F2F2;" d="M744.177,745.505c0,3.159-2.549,5.734-5.68,5.734h-96.059c-3.133,0-5.68-2.575-5.68-5.734
						v-40.619c0-3.159,2.547-5.715,5.68-5.715h96.059c3.131,0,5.68,2.557,5.68,5.715V745.505z"/>
				</g>
				<g>
					<path style="fill:#F1F2F2;" d="M629.653,745.505c0,3.159-2.538,5.734-5.68,5.734h-96.058c-3.133,0-5.68-2.575-5.68-5.734
						v-40.619c0-3.159,2.547-5.715,5.68-5.715h96.058c3.142,0,5.68,2.557,5.68,5.715V745.505z"/>
				</g>
				<g>
					<path style="fill:#F1F2F2;" d="M515.13,745.505c0,3.159-2.538,5.734-5.68,5.734h-96.05c-3.14,0-5.68-2.575-5.68-5.734v-40.619
						c0-3.159,2.54-5.715,5.68-5.715h96.05c3.142,0,5.68,2.557,5.68,5.715V745.505z"/>
				</g>
				<g>
					<path style="fill:#F1F2F2;" d="M400.608,745.505c0,3.159-2.54,5.734-5.682,5.734h-96.048c-3.142,0-5.68-2.575-5.68-5.734
						v-40.619c0-3.159,2.538-5.715,5.68-5.715h96.048c3.142,0,5.682,2.557,5.682,5.715V745.505z"/>
				</g>
				<g>
					<path style="fill:#F1F2F2;" d="M286.094,745.505c0,3.159-2.547,5.734-5.689,5.734h-96.048c-3.142,0-5.68-2.575-5.68-5.734
						v-40.619c0-3.159,2.538-5.715,5.68-5.715h96.048c3.142,0,5.689,2.557,5.689,5.715V745.505z"/>
				</g>
				<g>
					<path style="fill:#F1F2F2;" d="M171.572,745.505c0,3.159-2.549,5.734-5.68,5.734h-96.06c-3.131,0-5.68-2.575-5.68-5.734
						v-40.619c0-3.159,2.549-5.715,5.68-5.715h96.06c3.13,0,5.68,2.557,5.68,5.715V745.505z"/>
				</g>
				<g>
					<path style="fill:#F1F2F2;" d="M57.048,745.505c0,3.159-2.547,5.734-5.68,5.734H-44.69c-3.133,0-5.68-2.575-5.68-5.734v-40.619
						c0-3.159,2.547-5.715,5.68-5.715h96.058c3.133,0,5.68,2.557,5.68,5.715V745.505z"/>
				</g>
				<g>
					<path style="fill:#F1F2F2;" d="M1087.745,627.413c0,3.159-2.54,5.715-5.68,5.715h-96.068c-3.123,0-5.661-2.557-5.661-5.715
						v-40.619c0-3.161,2.538-5.736,5.661-5.736h96.068c3.14,0,5.68,2.575,5.68,5.736V627.413z"/>
				</g>
				<g>
					<path style="fill:#F1F2F2;" d="M973.211,627.413c0,3.159-2.538,5.715-5.68,5.715h-96.048c-3.142,0-5.68-2.557-5.68-5.715
						v-40.619c0-3.161,2.538-5.736,5.68-5.736h96.048c3.142,0,5.68,2.575,5.68,5.736V627.413z"/>
				</g>
				<g>
					<path style="fill:#F1F2F2;" d="M858.699,627.413c0,3.159-2.538,5.715-5.68,5.715h-96.058c-3.132,0-5.682-2.557-5.682-5.715
						v-40.619c0-3.161,2.549-5.736,5.682-5.736h96.058c3.142,0,5.68,2.575,5.68,5.736V627.413z"/>
				</g>
				<g>
					<path style="fill:#F1F2F2;" d="M744.177,627.413c0,3.159-2.549,5.715-5.68,5.715h-96.059c-3.133,0-5.68-2.557-5.68-5.715
						v-40.619c0-3.161,2.547-5.736,5.68-5.736h96.059c3.131,0,5.68,2.575,5.68,5.736V627.413z"/>
				</g>
				<g>
					<path style="fill:#F1F2F2;" d="M629.653,627.413c0,3.159-2.538,5.715-5.68,5.715h-96.058c-3.133,0-5.68-2.557-5.68-5.715
						v-40.619c0-3.161,2.547-5.736,5.68-5.736h96.058c3.142,0,5.68,2.575,5.68,5.736V627.413z"/>
				</g>
				<g>
					<path style="fill:#F1F2F2;" d="M515.13,627.413c0,3.159-2.538,5.715-5.68,5.715h-96.05c-3.14,0-5.68-2.557-5.68-5.715v-40.619
						c0-3.161,2.54-5.736,5.68-5.736h96.05c3.142,0,5.68,2.575,5.68,5.736V627.413z"/>
				</g>
				<g>
					<path style="fill:#F1F2F2;" d="M400.608,627.413c0,3.159-2.54,5.715-5.682,5.715h-96.048c-3.142,0-5.68-2.557-5.68-5.715
						v-40.619c0-3.161,2.538-5.736,5.68-5.736h96.048c3.142,0,5.682,2.575,5.682,5.736V627.413z"/>
				</g>
				<g>
					<path style="fill:#F1F2F2;" d="M286.094,627.413c0,3.159-2.547,5.715-5.689,5.715h-96.048c-3.142,0-5.68-2.557-5.68-5.715
						v-40.619c0-3.161,2.538-5.736,5.68-5.736h96.048c3.142,0,5.689,2.575,5.689,5.736V627.413z"/>
				</g>
				<g>
					<path style="fill:#F1F2F2;" d="M171.572,627.413c0,3.159-2.549,5.715-5.68,5.715h-96.06c-3.131,0-5.68-2.557-5.68-5.715
						v-40.619c0-3.161,2.549-5.736,5.68-5.736h96.06c3.13,0,5.68,2.575,5.68,5.736V627.413z"/>
				</g>
				<g>
					<path style="fill:#F1F2F2;" d="M57.048,627.413c0,3.159-2.547,5.715-5.68,5.715H-44.69c-3.133,0-5.68-2.557-5.68-5.715v-40.619
						c0-3.161,2.547-5.736,5.68-5.736h96.058c3.133,0,5.68,2.575,5.68,5.736V627.413z"/>
				</g>
				<g>
					<path style="fill:#F1F2F2;" d="M1087.745,509.3c0,3.161-2.54,5.736-5.68,5.736h-96.068c-3.123,0-5.661-2.575-5.661-5.736
						v-40.619c0-3.159,2.538-5.715,5.661-5.715h96.068c3.14,0,5.68,2.557,5.68,5.715V509.3z"/>
				</g>
				<g>
					<path style="fill:#F1F2F2;" d="M973.211,509.3c0,3.161-2.538,5.736-5.68,5.736h-96.048c-3.142,0-5.68-2.575-5.68-5.736v-40.619
						c0-3.159,2.538-5.715,5.68-5.715h96.048c3.142,0,5.68,2.557,5.68,5.715V509.3z"/>
				</g>
				<g>
					<path style="fill:#F1F2F2;" d="M858.699,509.3c0,3.161-2.538,5.736-5.68,5.736h-96.058c-3.132,0-5.682-2.575-5.682-5.736
						v-40.619c0-3.159,2.549-5.715,5.682-5.715h96.058c3.142,0,5.68,2.557,5.68,5.715V509.3z"/>
				</g>
				<g>
					<path style="fill:#F1F2F2;" d="M744.177,509.3c0,3.161-2.549,5.736-5.68,5.736h-96.059c-3.133,0-5.68-2.575-5.68-5.736v-40.619
						c0-3.159,2.547-5.715,5.68-5.715h96.059c3.131,0,5.68,2.557,5.68,5.715V509.3z"/>
				</g>
				<g>
					<path style="fill:#F1F2F2;" d="M629.653,509.3c0,3.161-2.538,5.736-5.68,5.736h-96.058c-3.133,0-5.68-2.575-5.68-5.736v-40.619
						c0-3.159,2.547-5.715,5.68-5.715h96.058c3.142,0,5.68,2.557,5.68,5.715V509.3z"/>
				</g>
				<g>
					<path style="fill:#F1F2F2;" d="M515.13,509.3c0,3.161-2.538,5.736-5.68,5.736h-96.05c-3.14,0-5.68-2.575-5.68-5.736v-40.619
						c0-3.159,2.54-5.715,5.68-5.715h96.05c3.142,0,5.68,2.557,5.68,5.715V509.3z"/>
				</g>
				<g>
					<path style="fill:#F1F2F2;" d="M400.608,509.3c0,3.161-2.54,5.736-5.682,5.736h-96.048c-3.142,0-5.68-2.575-5.68-5.736v-40.619
						c0-3.159,2.538-5.715,5.68-5.715h96.048c3.142,0,5.682,2.557,5.682,5.715V509.3z"/>
				</g>
				<g>
					<path style="fill:#F1F2F2;" d="M286.094,509.3c0,3.161-2.547,5.736-5.689,5.736h-96.048c-3.142,0-5.68-2.575-5.68-5.736
						v-40.619c0-3.159,2.538-5.715,5.68-5.715h96.048c3.142,0,5.689,2.557,5.689,5.715V509.3z"/>
				</g>
				<g>
					<path style="fill:#F1F2F2;" d="M171.572,509.3c0,3.161-2.549,5.736-5.68,5.736h-96.06c-3.131,0-5.68-2.575-5.68-5.736v-40.619
						c0-3.159,2.549-5.715,5.68-5.715h96.06c3.13,0,5.68,2.557,5.68,5.715V509.3z"/>
				</g>
				<g>
					<path style="fill:#F1F2F2;" d="M57.048,509.3c0,3.161-2.547,5.736-5.68,5.736H-44.69c-3.133,0-5.68-2.575-5.68-5.736v-40.619
						c0-3.159,2.547-5.715,5.68-5.715h96.058c3.133,0,5.68,2.557,5.68,5.715V509.3z"/>
				</g>
				<g>
					<path style="fill:#F1F2F2;" d="M1087.745,391.207c0,3.159-2.54,5.715-5.68,5.715h-96.068c-3.123,0-5.661-2.557-5.661-5.715
						v-40.619c0-3.161,2.538-5.734,5.661-5.734h96.068c3.14,0,5.68,2.573,5.68,5.734V391.207z"/>
				</g>
				<g>
					<path style="fill:#F1F2F2;" d="M973.211,391.207c0,3.159-2.538,5.715-5.68,5.715h-96.048c-3.142,0-5.68-2.557-5.68-5.715
						v-40.619c0-3.161,2.538-5.734,5.68-5.734h96.048c3.142,0,5.68,2.573,5.68,5.734V391.207z"/>
				</g>
				<g>
					<path style="fill:#F1F2F2;" d="M858.699,391.207c0,3.159-2.538,5.715-5.68,5.715h-96.058c-3.132,0-5.682-2.557-5.682-5.715
						v-40.619c0-3.161,2.549-5.734,5.682-5.734h96.058c3.142,0,5.68,2.573,5.68,5.734V391.207z"/>
				</g>
				<g>
					<path style="fill:#F1F2F2;" d="M744.177,391.207c0,3.159-2.549,5.715-5.68,5.715h-96.059c-3.133,0-5.68-2.557-5.68-5.715
						v-40.619c0-3.161,2.547-5.734,5.68-5.734h96.059c3.131,0,5.68,2.573,5.68,5.734V391.207z"/>
				</g>
				<g>
					<path style="fill:#F1F2F2;" d="M629.653,391.207c0,3.159-2.538,5.715-5.68,5.715h-96.058c-3.133,0-5.68-2.557-5.68-5.715
						v-40.619c0-3.161,2.547-5.734,5.68-5.734h96.058c3.142,0,5.68,2.573,5.68,5.734V391.207z"/>
				</g>
				<g>
					<path style="fill:#F1F2F2;" d="M515.13,391.207c0,3.159-2.538,5.715-5.68,5.715h-96.05c-3.14,0-5.68-2.557-5.68-5.715v-40.619
						c0-3.161,2.54-5.734,5.68-5.734h96.05c3.142,0,5.68,2.573,5.68,5.734V391.207z"/>
				</g>
				<g>
					<path style="fill:#F1F2F2;" d="M400.608,391.207c0,3.159-2.54,5.715-5.682,5.715h-96.048c-3.142,0-5.68-2.557-5.68-5.715
						v-40.619c0-3.161,2.538-5.734,5.68-5.734h96.048c3.142,0,5.682,2.573,5.682,5.734V391.207z"/>
				</g>
				<g>
					<path style="fill:#F1F2F2;" d="M286.094,391.207c0,3.159-2.547,5.715-5.689,5.715h-96.048c-3.142,0-5.68-2.557-5.68-5.715
						v-40.619c0-3.161,2.538-5.734,5.68-5.734h96.048c3.142,0,5.689,2.573,5.689,5.734V391.207z"/>
				</g>
				<g>
					<path style="fill:#F1F2F2;" d="M171.572,391.207c0,3.159-2.549,5.715-5.68,5.715h-96.06c-3.131,0-5.68-2.557-5.68-5.715
						v-40.619c0-3.161,2.549-5.734,5.68-5.734h96.06c3.13,0,5.68,2.573,5.68,5.734V391.207z"/>
				</g>
				<g>
					<path style="fill:#F1F2F2;" d="M57.048,391.207c0,3.159-2.547,5.715-5.68,5.715H-44.69c-3.133,0-5.68-2.557-5.68-5.715v-40.619
						c0-3.161,2.547-5.734,5.68-5.734h96.058c3.133,0,5.68,2.573,5.68,5.734V391.207z"/>
				</g>
				<g>
					<path style="fill:#F1F2F2;" d="M1087.745,273.094c0,3.161-2.54,5.736-5.68,5.736h-96.068c-3.123,0-5.661-2.575-5.661-5.736
						v-40.617c0-3.161,2.538-5.717,5.661-5.717h96.068c3.14,0,5.68,2.557,5.68,5.717V273.094z"/>
				</g>
				<g>
					<path style="fill:#F1F2F2;" d="M973.211,273.094c0,3.161-2.538,5.736-5.68,5.736h-96.048c-3.142,0-5.68-2.575-5.68-5.736
						v-40.617c0-3.161,2.538-5.717,5.68-5.717h96.048c3.142,0,5.68,2.557,5.68,5.717V273.094z"/>
				</g>
				<g>
					<path style="fill:#F1F2F2;" d="M858.699,273.094c0,3.161-2.538,5.736-5.68,5.736h-96.058c-3.132,0-5.682-2.575-5.682-5.736
						v-40.617c0-3.161,2.549-5.717,5.682-5.717h96.058c3.142,0,5.68,2.557,5.68,5.717V273.094z"/>
				</g>
				<g>
					<path style="fill:#F1F2F2;" d="M744.177,273.094c0,3.161-2.549,5.736-5.68,5.736h-96.059c-3.133,0-5.68-2.575-5.68-5.736
						v-40.617c0-3.161,2.547-5.717,5.68-5.717h96.059c3.131,0,5.68,2.557,5.68,5.717V273.094z"/>
				</g>
				<g>
					<path style="fill:#F1F2F2;" d="M629.653,273.094c0,3.161-2.538,5.736-5.68,5.736h-96.058c-3.133,0-5.68-2.575-5.68-5.736
						v-40.617c0-3.161,2.547-5.717,5.68-5.717h96.058c3.142,0,5.68,2.557,5.68,5.717V273.094z"/>
				</g>
				<g>
					<path style="fill:#F1F2F2;" d="M515.13,273.094c0,3.161-2.538,5.736-5.68,5.736h-96.05c-3.14,0-5.68-2.575-5.68-5.736v-40.617
						c0-3.161,2.54-5.717,5.68-5.717h96.05c3.142,0,5.68,2.557,5.68,5.717V273.094z"/>
				</g>
				<g>
					<path style="fill:#F1F2F2;" d="M400.608,273.094c0,3.161-2.54,5.736-5.682,5.736h-96.048c-3.142,0-5.68-2.575-5.68-5.736
						v-40.617c0-3.161,2.538-5.717,5.68-5.717h96.048c3.142,0,5.682,2.557,5.682,5.717V273.094z"/>
				</g>
				<g>
					<path style="fill:#F1F2F2;" d="M286.094,273.094c0,3.161-2.547,5.736-5.689,5.736h-96.048c-3.142,0-5.68-2.575-5.68-5.736
						v-40.617c0-3.161,2.538-5.717,5.68-5.717h96.048c3.142,0,5.689,2.557,5.689,5.717V273.094z"/>
				</g>
				<g>
					<path style="fill:#F1F2F2;" d="M171.572,273.094c0,3.161-2.549,5.736-5.68,5.736h-96.06c-3.131,0-5.68-2.575-5.68-5.736
						v-40.617c0-3.161,2.549-5.717,5.68-5.717h96.06c3.13,0,5.68,2.557,5.68,5.717V273.094z"/>
				</g>
				<g>
					<path style="fill:#F1F2F2;" d="M57.048,273.094c0,3.161-2.547,5.736-5.68,5.736H-44.69c-3.133,0-5.68-2.575-5.68-5.736v-40.617
						c0-3.161,2.547-5.717,5.68-5.717h96.058c3.133,0,5.68,2.557,5.68,5.717V273.094z"/>
				</g>
				<g>
					<path style="fill:#F1F2F2;" d="M1087.745,155.002c0,3.159-2.54,5.715-5.68,5.715h-96.068c-3.123,0-5.661-2.557-5.661-5.715
						v-40.619c0-3.159,2.538-5.725,5.661-5.725h96.068c3.14,0,5.68,2.566,5.68,5.725V155.002z"/>
				</g>
				<g>
					<path style="fill:#F1F2F2;" d="M973.211,155.002c0,3.159-2.538,5.715-5.68,5.715h-96.048c-3.142,0-5.68-2.557-5.68-5.715
						v-40.619c0-3.159,2.538-5.725,5.68-5.725h96.048c3.142,0,5.68,2.566,5.68,5.725V155.002z"/>
				</g>
				<g>
					<path style="fill:#F1F2F2;" d="M858.699,155.002c0,3.159-2.538,5.715-5.68,5.715h-96.058c-3.132,0-5.682-2.557-5.682-5.715
						v-40.619c0-3.159,2.549-5.725,5.682-5.725h96.058c3.142,0,5.68,2.566,5.68,5.725V155.002z"/>
				</g>
				<g>
					<path style="fill:#F1F2F2;" d="M744.177,155.002c0,3.159-2.549,5.715-5.68,5.715h-96.059c-3.133,0-5.68-2.557-5.68-5.715
						v-40.619c0-3.159,2.547-5.725,5.68-5.725h96.059c3.131,0,5.68,2.566,5.68,5.725V155.002z"/>
				</g>
				<g>
					<path style="fill:#F1F2F2;" d="M629.653,155.002c0,3.159-2.538,5.715-5.68,5.715h-96.058c-3.133,0-5.68-2.557-5.68-5.715
						v-40.619c0-3.159,2.547-5.725,5.68-5.725h96.058c3.142,0,5.68,2.566,5.68,5.725V155.002z"/>
				</g>
				<g>
					<path style="fill:#F1F2F2;" d="M515.13,155.002c0,3.159-2.538,5.715-5.68,5.715h-96.05c-3.14,0-5.68-2.557-5.68-5.715v-40.619
						c0-3.159,2.54-5.725,5.68-5.725h96.05c3.142,0,5.68,2.566,5.68,5.725V155.002z"/>
				</g>
				<g>
					<path style="fill:#F1F2F2;" d="M400.608,155.002c0,3.159-2.54,5.715-5.682,5.715h-96.048c-3.142,0-5.68-2.557-5.68-5.715
						v-40.619c0-3.159,2.538-5.725,5.68-5.725h96.048c3.142,0,5.682,2.566,5.682,5.725V155.002z"/>
				</g>
				<g>
					<path style="fill:#F1F2F2;" d="M286.094,155.002c0,3.159-2.547,5.715-5.689,5.715h-96.048c-3.142,0-5.68-2.557-5.68-5.715
						v-40.619c0-3.159,2.538-5.725,5.68-5.725h96.048c3.142,0,5.689,2.566,5.689,5.725V155.002z"/>
				</g>
				<g>
					<path style="fill:#F1F2F2;" d="M171.572,155.002c0,3.159-2.549,5.715-5.68,5.715h-96.06c-3.131,0-5.68-2.557-5.68-5.715
						v-40.619c0-3.159,2.549-5.725,5.68-5.725h96.06c3.13,0,5.68,2.566,5.68,5.725V155.002z"/>
				</g>
				<g>
					<path style="fill:#F1F2F2;" d="M57.048,155.002c0,3.159-2.547,5.715-5.68,5.715H-44.69c-3.133,0-5.68-2.557-5.68-5.715v-40.619
						c0-3.159,2.547-5.725,5.68-5.725h96.058c3.133,0,5.68,2.566,5.68,5.725V155.002z"/>
				</g>
			</g>
		</g>
		<g>
			<path style="fill:#FFBE55;" d="M443.886,300.057c-7.111,8.568-6.471,21.066-6.387,22.428c0.5,8.102,3.871,14.235,6.286,17.964
				c23.639,36.486,60.609,56.976,60.609,56.977c14.426,11.897,30.185,24.074,47.32,36.25c21.628,15.368,42.589,28.701,62.394,40.261
				c3.655-19.887,7.31-39.774,10.965-59.661c-29.98-24.513-54.266-44.574-72.845-59.28c-10.534-8.339-22.181-17.88-33.341-34.067
				c-7.054-10.232-5.231-10.877-9.751-15.668C492.797,287.938,457.244,283.963,443.886,300.057z"/>
			<path style="opacity:0.12;" d="M443.886,300.057c-7.111,8.568-6.471,21.066-6.387,22.428c0.5,8.102,3.871,14.235,6.286,17.964
				c23.639,36.486,60.609,56.976,60.609,56.977c14.426,11.897,30.185,24.074,47.32,36.25c21.628,15.368,42.589,28.701,62.394,40.261
				c3.655-19.887,7.31-39.774,10.965-59.661c-29.98-24.513-54.266-44.574-72.845-59.28c-10.534-8.339-22.181-17.88-33.341-34.067
				c-7.054-10.232-5.231-10.877-9.751-15.668C492.797,287.938,457.244,283.963,443.886,300.057z"/>
			<g>
				<circle style="fill:#0B4870;" cx="347.307" cy="101.72" r="31.847"/>
				<circle style="fill:#0B4870;" cx="379.153" cy="90.696" r="31.847"/>
				<circle style="fill:#0B4870;" cx="411" cy="109.069" r="31.847"/>
				<circle style="fill:#0B4870;" cx="442.847" cy="133.567" r="31.847"/>
				<circle style="fill:#0B4870;" cx="466.119" cy="172.763" r="31.847"/>
				<circle style="fill:#0B4870;" cx="457.545" cy="197.26" r="31.847"/>
				<circle style="fill:#0B4870;" cx="442.847" cy="229.107" r="31.847"/>
				<circle style="fill:#0B4870;" cx="411" cy="252.417" r="31.847"/>
				<circle style="fill:#0B4870;" cx="387.727" cy="260.953" r="31.847"/>
				<circle style="fill:#0B4870;" cx="371.804" cy="260.953" r="31.847"/>
				<circle style="fill:#0B4870;" cx="382.828" cy="186.236" r="74.717"/>
				<circle style="fill:#0B4870;" cx="315.46" cy="133.567" r="31.847"/>
				<circle style="fill:#0B4870;" cx="300.762" cy="165.413" r="31.847"/>
				<circle style="fill:#0B4870;" cx="295.862" cy="197.26" r="31.847"/>
				<circle style="fill:#0B4870;" cx="300.762" cy="238.906" r="31.847"/>
				<circle style="fill:#0B4870;" cx="327.709" cy="260.953" r="31.847"/>
			</g>
			<path style="fill:#EFB68F;" d="M356.825,246.977c18.048,36.272,70.017,28.276,70.017,28.276"/>
			<path style="fill:#EFB68F;" d="M367.813,307.403c0,0-59.273,33.821-70.76,44.659c0,0,103.978,74.584,212.31-44.051
				c-11.256-4.289-13.101-4.189-27.889-7.536c-19.083-4.319-45.932-9.929-60.551-10.582L367.813,307.403z"/>
			<polygon style="fill:#EFB68F;" points="423.701,275.608 424.723,302.678 369.127,311.091 347.297,244.408 360.521,241.871 			"/>
			<path style="fill:#EFB68F;" d="M330.325,231.153c3.494,6.379,9.577,11.13,16.972,13.255c20.947,5.828,20.73-19.31,10.351-28.777
				C345.296,204.346,320.99,214.012,330.325,231.153z"/>
			<path style="fill:#FFBE55;" d="M358.131,314.325c12.346,17.562,34.604,24.633,53.585,17.58
				c16.269-6.045,27.711-21.568,29.207-39.605c6.704-1.933,19.309-4.618,34.86-2.13c15.685,2.51,26.894,9.088,32.66,13.041
				l51.478,304.187l-181.236,28.224L295.453,353.45c6.808-5.707,14.372-14.565,23.843-20.41
				C333.438,324.312,346.828,318.395,358.131,314.325z"/>
			<path style="fill:#0B4870;" d="M606.934,686.62c-10.419,19.851-42.991,27.348-51.339,31.032
				c-2.577,1.137-11.145,2.97-28.217,6.902c-13.151,3.029-26.887,5.93-41.396,8.685c-8.39,1.593-16.645,3.062-24.755,4.416
				c-20.771,3.468-19.739-0.1-28.604,0.506c-12.448,0.852-11.994,5.261-40.386-11.335c-21.561-25.113-18.261-90.656-23.154-123.756
				l183.9-36.671C568.243,594.887,580.8,649.593,606.934,686.62z"/>
			<g>
				<polygon style="fill:#FFBE55;" points="596.124,1134.765 621.795,1042.911 585.622,1031.832 559.92,1123.555 				"/>
			</g>
			<g>
				<path style="fill:#0B4870;" d="M555.332,1124.962l-6.664,29.525h117.318v-0.862c0-6.8-3.911-12.994-10.05-15.917l-54.447-21.725
					c-1.959-0.933-4.475-0.893-5.967,0.682c-7.036,7.427-14.764,19.522-36.244,6.399
					C557.72,1122.111,555.679,1123.17,555.332,1124.962z"/>
				<rect x="548.668" y="1154.487" style="fill:#FFBE55;" width="117.318" height="7.748"/>
			</g>
			<path style="fill:#0B4870;" d="M646.995,828.396L646.995,828.396c19.043-12.355,24.69-37.68,12.701-56.955l-73.89-118.787
				c-13.946-22.42-44.864-31.482-68.707-20.138l0,0c-5.503,5.337-14.614,15.571-20.619,31.124
				c-6.752,17.484-6.166,32.849-5.328,40.667c33.93,38.848,67.861,77.696,101.791,116.544
				C606.576,836.461,629.609,839.676,646.995,828.396z"/>
			<path style="fill:#0B4870;" d="M522.508,1154.487l99.287-30.402l45.293-335.699c-2.787-22.843-23.678-39.022-46.492-36.007h0
				c-23.143,3.059-39.175,24.648-35.412,47.687L522.508,1154.487z"/>
			<g>
				<polygon style="fill:#FFBE55;" points="211.291,1126.014 258.217,1042.983 291.602,1060.779 244.791,1143.739 				"/>
			</g>
			<path style="fill:#0B4870;" d="M395.911,864.916l-69.691-28.55l65.558-175.315c9.398-24.46,37.041-36.443,61.317-26.581l0,0
				c1.353,0.55,6.104,2.56,11.406,6.763c0,0,10.078,8.063,14.711,19.916c5.126,13.114,1.904,26.715-1.701,37.296
				C468.726,724.223,439.397,785.674,395.911,864.916z"/>
			<path style="fill:#0B4870;" d="M295.862,1175.746l-99.406-60.382l152.531-339.193c8.448-21.406,32.738-31.805,54.058-23.144
				c21.628,8.786,31.709,33.715,22.268,55.066L295.862,1175.746z"/>
			<g>
				<path style="fill:#0B4870;" d="M262.654,1145.703l-3.676,30.043l-110.456-39.536l0.29-0.811
					c2.292-6.402,8.061-10.916,14.826-11.599l58.583-2.106c2.159-0.218,4.514,0.667,5.389,2.653
					c4.122,9.363,7.321,23.355,31.968,18.238C261.367,1142.214,262.932,1143.898,262.654,1145.703z"/>
				
					<rect x="143.786" y="1155.751" transform="matrix(-0.9415 -0.337 0.337 -0.9415 2.2624 2319.6433)" style="fill:#FFBE55;" width="117.318" height="7.748"/>
			</g>
			<path style="fill:#E0A882;" d="M423.701,275.608c-1.531,3.48-4.01,7.31-8.14,9.313c-12.971,6.292-32.317-10.234-40.093-16.877
				c-8.256-7.053-14.28-14.523-18.643-21.068C360.739,251.237,365.687,255.791,423.701,275.608z"/>
			<path style="fill:#EFB68F;" d="M331.62,158.971c15.793-29.223,60.861-42.583,87.487-27.046
				c12.082,7.051,17.111,18.152,24.528,34.529c2.268,5.007,18.68,42.627,6.025,82.609c-4.897,15.473-10.753,20.573-15.044,23.06
				c-8.652,5.015-18.126,3.43-26.833,2.163c-17.645-2.567-29.775-11.079-34.232-14.283
				C352.256,244.697,310.848,197.407,331.62,158.971z"/>
			<g>
				<circle style="fill:#0B4870;" cx="330.087" cy="212.276" r="7.667"/>
				<circle style="fill:#0B4870;" cx="338.041" cy="216.643" r="5.75"/>
				<circle style="fill:#0B4870;" cx="343.791" cy="222.393" r="3.833"/>
				<circle style="fill:#0B4870;" cx="327.709" cy="200.473" r="8.574"/>
				<circle style="fill:#0B4870;" cx="325.949" cy="186.236" r="8.574"/>
				<circle style="fill:#0B4870;" cx="328.239" cy="172.763" r="8.574"/>
				<circle style="fill:#0B4870;" cx="332.608" cy="161.488" r="8.574"/>
				<circle style="fill:#0B4870;" cx="339.958" cy="149.49" r="8.574"/>
				<circle style="fill:#0B4870;" cx="348.532" cy="140.916" r="8.574"/>
				<circle style="fill:#0B4870;" cx="358.219" cy="133.567" r="8.574"/>
				<circle style="fill:#0B4870;" cx="366.793" cy="124.993" r="8.574"/>
				<circle style="fill:#0B4870;" cx="382.828" cy="122.543" r="8.574"/>
				<circle style="fill:#0B4870;" cx="396.302" cy="124.993" r="8.574"/>
				<circle style="fill:#0B4870;" cx="408.529" cy="128.119" r="8.574"/>
				<circle style="fill:#0B4870;" cx="421.421" cy="128.119" r="8.574"/>
				<circle style="fill:#0B4870;" cx="433.186" cy="136.693" r="8.574"/>
			</g>
			<polygon style="fill:#FFBE55;" points="451.402,170.051 357.121,210.289 357.096,210.289 353.212,207.107 450.926,165.416 			"/>
			<polygon style="opacity:0.06;fill:#191919;" points="451.402,170.051 357.121,210.289 357.096,210.289 353.212,207.107 
				450.926,165.416 			"/>
			<polygon style="fill:#FFBE55;" points="454.409,199.44 427.64,212.276 417.102,207.057 410.989,220.561 381.65,230.283 
				357.121,210.289 451.402,170.051 			"/>
			<polygon style="opacity:0.14;fill:#FFFFFF;" points="381.869,199.727 381.65,230.283 403.209,223.139 403.209,190.431 			"/>
			<polygon style="opacity:0.14;fill:#FFFFFF;" points="427.64,180.132 427.64,212.276 447.257,202.869 447.257,171.973 			"/>
			<path style="fill:#FFBE55;" d="M338.788,222.09l23.684-7.439l-9.26-7.544l-23.126,9.536c0.432-0.01,2.527-0.014,4.284,1.614
				C335.981,219.748,338.739,221.615,338.788,222.09z"/>
			<path style="opacity:0.15;fill:#191919;" d="M338.788,222.09l23.684-7.439l-9.26-7.544l-23.126,9.536
				c0.432-0.01,2.527-0.014,4.284,1.614C335.981,219.748,338.739,221.615,338.788,222.09z"/>
			<path style="fill:#FFBE55;" d="M422.655,244.363l62.457,19.294l172.73,277.557c23.047,37.033,73.35,45.46,107.207,17.958
				l159.508-129.566L786.522,313.64l-80.85,154.298l-185.291-223.12c-8.159-9.824-20.982-14.483-33.544-12.187L422.655,244.363z"/>
			<g>
				<path style="fill:#F7C6A4;" d="M591.575,391.64c-1.843,5.213-0.73,8.197-0.73,8.197l0,0c-4.266,2.912-4.896,8.424-1.378,12.067
					l2.491,2.58c3.255,3.37,8.891,3.902,12.842,1.212l0.227-0.155c2.763-0.383,17.828-2.732,25.426-15.522
					c4.835-8.14,6.995-21.096,1.795-24.519c-4.491-2.957-14.455,1.213-23.162,11.078l3.089-9.014
					c0.392-1.144-0.097-2.385-1.208-3.064c-1.195-0.731-2.798-0.624-3.851,0.256l-8.344,6.974
					C595.503,384.463,592.922,387.831,591.575,391.64z"/>
				<path style="fill:#F7C6A4;" d="M587.654,403.857l-126.939,71.988c-10.937,6.299-13.078,19.755-4.545,28.571l0,0
					c7.707,7.964,21.154,8.964,30.176,2.244l113.782-89.307L587.654,403.857z"/>
			</g>
			<path style="fill:#F7C6A4;" d="M320.353,421.404c24.77,18.91,50.656,44.472,119.139,82.401
				c7.254,4.017,20.999,11.404,34.822,7.974c6.414-1.592,10.897-5.029,13.676-7.692c-0.491-3.782-1.813-9.74-5.757-16.248
				c-5.032-8.302-11.802-13.327-15.634-15.789c-39.847-33.998-79.695-67.997-119.542-101.995
				c-11.874-9.397-30.021-8.366-39.647,2.252C298.449,382.191,309.124,412.832,320.353,421.404z"/>
			<path style="fill:#FFBE55;" d="M466.599,472.051c-25.458-19.996-43.822-38.49-55.936-51.752
				c-13.376-14.645-27.101-31.637-51.713-54.72c-26.386-24.747-37.759-30.677-46.653-27.491c-6.129,2.195-16.46,10.563-21.3,22.427
				c-0.398,0.976-0.676,1.738-0.845,2.201c-8.598,23.566,19.306,49.09,26.526,57.234c28.451,32.093,132.101,92.247,144.496,95.958
				c0,0,11.912,4.059,29.482-7.667c17.571-11.726,116.278-54.118,116.278-54.118s-4.637-37.522-23.937-47.624L466.599,472.051z"/>
			<polygon style="fill:#FFBE55;" points="366.15,301.997 343.165,321.081 403.209,348.397 408.108,332.548 			"/>
			<polygon style="fill:#FFBE55;" points="408.108,332.548 423.701,290.065 440.923,292.3 428.176,340.474 			"/>
			<path style="opacity:0.18;fill:#F9F9F9;" d="M466.599,472.051c-25.458-19.996-43.822-38.49-55.936-51.752
				c-13.376-14.645-27.101-31.637-51.713-54.72c-26.386-24.747-37.759-30.677-46.653-27.491c-6.129,2.195-16.46,10.563-21.3,22.427
				c-0.398,0.976-0.676,1.738-0.845,2.201c-8.598,23.566,19.306,49.09,26.526,57.234c28.451,32.093,132.101,92.247,144.496,95.958
				c0,0,11.912,4.059,29.482-7.667c17.571-11.726,116.278-54.118,116.278-54.118s-4.637-37.522-23.937-47.624L466.599,472.051z"/>
			<polygon style="opacity:0.1;fill:#141414;" points="366.15,301.997 343.165,321.081 403.209,348.397 408.108,332.548 			"/>
			<polygon style="opacity:0.1;fill:#141414;" points="408.108,332.548 423.701,290.065 440.923,292.3 428.176,340.474 			"/>
			<path style="opacity:0.12;" d="M786.522,313.64c0,0,4.611,129.784,138.034,115.966L786.522,313.64z"/>
			<polygon style="opacity:0.12;" points="541.918,270.752 531.262,279.591 549.266,301.997 559.92,292.43 			"/>
			<polygon style="opacity:0.12;" points="574.648,309.575 563.992,318.413 581.997,340.82 592.65,331.252 			"/>
			<polygon style="opacity:0.12;" points="603.261,343.957 592.605,352.795 610.609,375.202 621.263,365.635 			"/>
			<path style="opacity:0.11;fill:#FFFFFF;" d="M684.563,547.477c0,0,40.589,26.157,73.962-6.314
				c33.373-32.471,86.589-97.413,86.589-97.413l59.53-5.606c-33.058,20.969-56.758,41.611-72.609,57.018
				c-5.683,5.524-41.285,40.436-81.629,64.04c-5.348,3.129-15.331,8.723-28.412,8.118
				C703.293,566.455,689.969,553.463,684.563,547.477z"/>
		</g>
		<g>
			<path style="fill:none;stroke:#E2E2E2;stroke-miterlimit:10;" d="M818.705,381.248c-0.023-35.871,5.841-83.476,38.469-107.578
				c38.761-28.632,83.599-0.68,129.321-23.852c27.828-14.104,59.983-49.172,72.514-144.421"/>
			<g>
				<path style="fill:#E2E2E2;" d="M833.281,392.977c0.469-18.1,2.396-36.318,7.564-53.818c2.612-8.721,6.079-17.239,10.738-25.126
					c4.659-7.87,10.573-15.079,17.715-20.881c3.566-2.9,7.413-5.448,11.468-7.627c4.069-2.155,8.378-3.846,12.791-5.127
					c8.847-2.565,18.078-3.361,27.169-3.318c9.11,0.019,18.15,0.74,27.152,1.215c8.999,0.472,17.999,0.725,26.909-0.081
					c17.861-1.282,35.049-7.925,49.658-18.203l5.385-3.998c1.732-1.413,3.397-2.912,5.1-4.363c0.837-0.742,1.717-1.437,2.519-2.218
					l2.38-2.373c1.572-1.596,3.206-3.131,4.728-4.776l4.428-5.065l2.211-2.536l2.047-2.674l4.095-5.347
					c0.705-0.875,1.328-1.81,1.95-2.746l1.882-2.796c10.093-14.887,18.311-31,25.494-47.52l5.174-12.494
					c1.661-4.191,3.136-8.456,4.714-12.68l2.329-6.353l2.09-6.437l4.181-12.876l1.702,0.513l-4.091,12.95l-2.046,6.476l-2.286,6.397
					c-1.55,4.255-2.997,8.549-4.633,12.774l-5.101,12.602c-7.169,16.642-15.407,32.896-25.568,47.979l-1.896,2.833
					c-0.627,0.948-1.255,1.895-1.966,2.784l-4.134,5.429l-2.067,2.714l-2.237,2.581l-4.483,5.154
					c-1.542,1.675-3.2,3.245-4.795,4.872l-2.416,2.42c-0.815,0.797-1.709,1.51-2.561,2.269c-1.732,1.485-3.426,3.017-5.19,4.463
					l-5.49,4.101c-7.477,5.248-15.577,9.653-24.157,12.853c-8.55,3.291-17.628,5.183-26.725,5.947
					c-9.112,0.797-18.237,0.51-27.279,0.012c-9.047-0.503-18.043-1.243-27.018-1.286c-8.96-0.067-17.939,0.696-26.487,3.149
					c-4.266,1.226-8.419,2.842-12.348,4.909c-3.912,2.09-7.64,4.543-11.094,7.335c-6.916,5.588-12.672,12.553-17.238,20.216
					c-4.568,7.677-7.984,16.021-10.593,24.594c-5.227,17.186-7.295,35.239-7.903,53.23L833.281,392.977z"/>
			</g>
			<g>
				<path style="fill:#E2E2E2;" d="M848.913,404.712c0.426-9.439,1.311-18.878,2.904-28.225c1.584-9.343,3.832-18.613,7.099-27.574
					c3.297-8.936,7.646-17.578,13.439-25.273c5.766-7.695,13.061-14.345,21.471-19.163c4.193-2.431,8.681-4.374,13.321-5.795
					c4.641-1.426,9.43-2.302,14.225-2.783c9.614-0.955,19.203-0.315,28.62,0.617c9.427,0.944,18.751,2.189,28.068,2.812
					c9.307,0.642,18.627,0.586,27.749-0.787c4.558-0.666,9.091-1.643,13.53-2.913c4.438-1.283,8.79-2.862,13.042-4.685
					c8.509-3.649,16.524-8.42,24.071-13.839c15.049-10.973,27.989-24.689,39.575-39.373c5.784-7.366,11.206-15.025,16.362-22.867
					c5.105-7.877,9.936-15.935,14.574-24.109c9.26-16.363,17.554-33.277,25.378-50.409l1.325,0.575
					c-7.24,17.43-15.308,34.528-24.199,51.216c-4.531,8.299-9.295,16.475-14.328,24.494c-5.09,7.983-10.459,15.8-16.213,23.344
					c-11.465,15.097-24.7,29.038-40.073,40.419c-7.732,5.608-15.985,10.577-24.796,14.405c-8.795,3.844-18.085,6.618-27.611,8.024
					c-9.54,1.391-19.19,1.391-28.673,0.693c-9.495-0.68-18.865-1.978-28.191-2.953c-9.316-0.968-18.645-1.617-27.825-0.746
					c-9.155,0.864-18.137,3.332-26.131,7.842c-8.023,4.452-15.037,10.651-20.677,17.959c-5.668,7.302-9.995,15.627-13.364,24.303
					c-6.785,17.411-9.728,36.171-11.229,54.878L848.913,404.712z"/>
			</g>
			<g>
				<path style="fill:#E2E2E2;" d="M865.099,416.51c0.33-4.933,0.783-9.862,1.395-14.779c0.629-4.914,1.447-9.808,2.449-14.672
					c2.012-9.722,4.879-19.323,8.988-28.466c4.124-9.114,9.579-17.781,16.739-25.02c7.114-7.247,15.947-12.96,25.733-16.146
					c4.881-1.6,9.954-2.575,15.037-3.034c5.088-0.459,10.184-0.382,15.214-0.026c10.075,0.73,19.885,2.594,29.601,4.269
					c9.713,1.686,19.36,3.321,29.023,3.817c4.828,0.257,9.644,0.238,14.431-0.134c4.788-0.387,9.545-1.112,14.243-2.127
					c4.71-0.971,9.325-2.381,13.881-3.946l3.394-1.252c1.131-0.418,2.232-0.919,3.35-1.374c2.246-0.888,4.41-1.975,6.607-2.985
					c8.704-4.238,16.94-9.457,24.806-15.189c15.759-11.487,29.732-25.387,42.72-40.093c12.874-14.835,24.763-30.579,35.807-46.916
					c11.128-16.287,21.473-33.126,31.481-50.184c-8.838,17.695-18.526,34.979-29.015,51.796
					c-5.236,8.414-10.797,16.63-16.518,24.741l-4.375,6.026c-1.455,2.011-3.009,3.951-4.509,5.931
					c-1.505,1.976-3.023,3.943-4.604,5.862c-1.571,1.926-3.106,3.883-4.708,5.785c-6.36,7.65-13.095,15.01-20.226,21.993
					c-7.127,6.984-14.655,13.599-22.673,19.625c-8.025,6.009-16.559,11.408-25.604,15.886c-2.287,1.068-4.54,2.208-6.887,3.151
					c-1.168,0.482-2.317,1.009-3.501,1.454l-3.554,1.331c-4.778,1.665-9.628,3.179-14.601,4.217
					c-4.966,1.049-10.002,1.792-15.07,2.177c-5.071,0.37-10.159,0.364-15.199,0.071c-10.089-0.591-19.984-2.251-29.71-4.09
					c-9.729-1.823-19.358-3.783-29.006-4.616c-9.621-0.826-19.317-0.48-28.432,2.28c-9.117,2.708-17.449,7.881-24.396,14.49
					c-6.993,6.61-12.508,14.762-16.836,23.485c-4.386,8.721-7.552,18.067-10.025,27.585
					C868.089,396.964,866.37,406.705,865.099,416.51z"/>
			</g>
		</g>
		<g>
			<path style="fill:#FFBE55;" d="M95.382,766.958c-5.414-4.198-14.408-5.93-20.986-6.25c-3.457-0.168-3.883,0.54-5.588-1.97
				c-1.583-2.33-1.627-7.877-2.209-10.679c-1.472-7.095-2.944-14.19-4.416-21.285c15.618-9.649,27.323-25.443,32.012-43.192
				c4.689-17.749,2.312-37.263-6.502-53.367c-2.81-5.134-7.301-10.479-13.144-10.155c-4.372,0.242-7.873,3.648-10.539,7.121
				c-8.451,11.01-12.876,24.748-14.213,38.564c-1.337,13.815,0.27,27.767,2.939,41.388c0.254,1.299,0.515,2.67,0.082,3.921
				c-0.468,1.356-1.657,2.312-2.792,3.188c-16.46,12.705-34.176,25.511-42.88,44.395c-5.165,11.206-6.713,24.046-4.357,36.158
				c2.427,12.48,9.285,24.421,20.025,31.224c7.037,4.457,15.316,6.528,23.542,7.84c10.413,1.66,21.184,2.192,31.416-0.355
				c1.177,6.225,2.178,12.485,2.951,18.774c0.61,4.962,1.227,10.016,1.454,15.043c0.073,1.607-0.055,3.173-0.055,4.771
				c-0.323,3.281-1.605,6.519-3.372,9.285c-0.787,1.232-1.69,2.39-2.694,3.452c-3.041,3.218-6.871,5.6-10.908,7.366
				c-2.874,1.257-5.972,2.025-9.109,2.176c-1.577,0.075-3.162-0.006-4.72-0.261c-0.127-0.021-0.273-0.046-0.406-0.068
				c6.236-3.368,10.522-9.883,10.522-17.468c0-11.007-8.923-19.93-19.929-19.93s-19.929,8.923-19.929,19.93
				c0,3.336,0.898,6.433,2.347,9.197l-0.115-0.036c0.282,0.543,0.617,1.014,0.923,1.524c0.124,0.194,0.226,0.4,0.357,0.589
				c10.443,16.494,33.343,15.59,33.343,15.59c2.789,0.13,5.748-0.467,8.426-1.154c5.985-1.535,11.603-4.535,15.939-8.972
				c2.069-2.117,3.827-4.528,5.258-7.117c1.173-2.124,2.211-4.348,2.76-6.722c0.761-3.295,0.521-6.661,0.202-9.995
				c-0.739-7.733-2.173-15.383-3.701-23.022c-0.361-1.806-0.722-3.612-1.083-5.418c-0.646-3.227-1.291-6.453-1.936-9.68
				c-0.033-0.163-0.065-0.326-0.098-0.489c0,0,19.174-5.593,23.169-22.37C107.366,808.502,114.955,782.138,95.382,766.958z
				 M61.025,647.343c7.824-10.545,24.722-5.865,25.929,7.21c0,0,2.38,18.743-13.942,37.306c-2.653,3.617-8.296,9.129-14.874,15.06
				l-1.963-9.32c-0.141-0.685-0.235-2.425-0.342-3.117c-1.736-11.169-2.027-27.193-0.974-33.399
				C56.255,652.856,61.025,647.343,61.025,647.343z M29.365,818.948c-8.158-6.923-14.098-16.888-14.61-27.576
				c-0.589-12.276,5.836-23.834,13.534-33.414c7.823-9.736,17.172-18.242,27.602-25.113c1.79,7.748,3.58,15.497,5.37,23.245
				c0.377,1.632,0.741,3.406,0.042,4.927c-0.763,1.658-2.556,2.53-4.159,3.403c-11.776,6.414-18.993,19.296-19.234,32.59
				c-0.091,5.017,0.664,10.213,3.336,14.46c2.672,4.247,7.566,7.342,12.554,6.805c-2.144,0.231-5.576-9.031-6.052-10.608
				c-1.328-4.399-1.601-9.139-0.76-13.658c1.783-9.587,9.042-16.165,18.847-17.081c3.525,15.882,7.612,34.743,10.93,51.278
				c0.016,0.082,0.032,0.161,0.049,0.243C60.768,833.56,42.205,829.844,29.365,818.948z M82.913,825.463l-1.377-7.228
				c-0.033-0.201-0.032-0.4-0.073-0.602l-8.625-40.941c5.488,0.292,20.847,2.969,24.828,23.536
				C97.666,800.228,101.084,815.701,82.913,825.463z"/>
		</g>
		<g>
			<g>
				<path style="fill:#FFBE55;" d="M829.78,806.046L829.78,806.046V693.179c0-0.505-0.409-0.914-0.914-0.914h-4.036
					c-0.505,0-0.914,0.409-0.914,0.914v103.696c-5.964-2.966-15.078-2.428-23.664,2.037c-11.928,6.202-18.288,17.593-14.207,25.443
					c4.081,7.85,17.06,9.185,28.987,2.983C824.987,822.162,829.825,813.348,829.78,806.046z"/>
			</g>
		</g>
		<g>
			<g>
				<path style="fill:#FFBE55;" d="M1015.54,259.292L1015.54,259.292v85.382c0,0.382,0.31,0.692,0.692,0.692h3.053
					c0.382,0,0.692-0.31,0.692-0.692V266.23c4.512,2.244,11.406,1.836,17.902-1.541c9.023-4.692,13.835-13.309,10.747-19.247
					c-3.088-5.938-12.905-6.948-21.928-2.257C1019.165,247.101,1015.505,253.769,1015.54,259.292z"/>
			</g>
		</g>
		<g>
			<path style="fill:#FFBE55;" d="M931.381,234.959v0.038l-37.856,7.713c-0.296,0.06-0.509,0.321-0.509,0.623v4.98v5.052v37.683
				c-2.767-1.376-6.996-1.126-10.98,0.945c-5.535,2.878-8.486,8.163-6.592,11.806c1.894,3.642,7.916,4.262,13.45,1.384
				c4.619-2.402,7.651-6.492,7.63-9.88V253.11c0-0.266,0.187-0.495,0.448-0.548l33.739-6.846c0.346-0.07,0.67,0.194,0.67,0.548
				v35.193c-2.768-1.376-6.996-1.126-10.98,0.945c-5.535,2.878-8.486,8.163-6.592,11.806c1.894,3.642,7.916,4.262,13.45,1.384
				c4.619-2.402,7.427-6.479,7.132-9.88h0.027v-50.564c0-0.399-0.363-0.699-0.755-0.624L931.381,234.959z"/>
		</g>
		<g>
			<path style="fill:#FFBE55;" d="M1138.684,49.337c-5.009-2.448-8.265-7.172-10.049-12.33c-0.74-2.139-1.251-4.356-1.577-6.595
				c-0.146-1.002-0.209-7.785-0.273-8.795c-0.052-0.83,0.021-1.815-0.267-2.604c-0.549-1.501-3.711-2.373-5.188-1.943
				c-1.144,0.333-1.151,1.807-1.085,2.768c0.101,1.47,0.11,8.693,0.105,10.17c-0.01,2.974-0.02,5.947-0.03,8.921
				c-0.013,3.89-0.027,7.78-0.04,11.67c-0.015,4.482-0.031,8.965-0.046,13.447c-0.016,4.751-0.032,9.501-0.048,14.252
				c-0.016,4.695-0.032,9.39-0.048,14.085c-0.015,4.315-0.029,8.63-0.044,12.945c-0.012,3.611-0.025,7.222-0.037,10.833
				c-0.009,2.583-0.018,5.166-0.026,7.749c-0.004,1.231-0.008,2.462-0.012,3.693c0,0.014-0.013,0.17-0.001,0.176
				c-6.318-3.142-15.972-2.572-25.067,2.158c-12.635,6.57-19.372,18.636-15.049,26.951c4.323,8.315,15.251,10.133,27.886,3.564
				c10.546-5.484,17.467-14.82,17.419-22.555V62.068c15.423-0.47,29.72,18.191,29.72,18.191c14.393,25.348-8.95,50.601-8.95,50.601
				c-1.546,4.788,1.616,3.777,1.616,3.777c8.255-4.974,17.845-20.673,17.845-20.673
				C1187.515,77.076,1138.684,49.337,1138.684,49.337z"/>
		</g>
		<path style="fill:#FFBE55;" d="M112.541,345.361h-9.557H47.886v9.976v2.011v63.814c-4.322-2.149-10.925-1.759-17.147,1.476
			c-8.643,4.494-13.252,12.748-10.294,18.436c2.957,5.688,12.362,6.656,21.004,2.162c7.214-3.751,11.949-10.138,11.916-15.429
			v-68.518h49.619h4.814v61.717c-4.322-2.149-10.925-1.759-17.147,1.476c-8.643,4.494-13.251,12.748-10.294,18.436
			c2.957,5.688,12.361,6.656,21.004,2.162c7.214-3.751,11.598-10.117,11.138-15.429h0.042v-68.363h58.273v61.873
			c-4.322-2.149-10.925-1.759-17.147,1.476c-8.643,4.494-13.252,12.748-10.294,18.436c2.958,5.688,12.362,6.656,21.004,2.162
			c7.214-3.751,11.949-10.138,11.916-15.429v-68.518v-9.83v-4.099H112.541z"/>
		<path style="fill:#FFBE55;" d="M684.385,171.65c-0.234-0.73-0.511-1.448-0.808-2.159c2.447-6.279,1.13-11.333,1.13-11.333
			c-0.281-0.878-0.626-1.738-0.998-2.589c2.27-6.119,0.998-10.99,0.998-10.99c-3.137-9.793-12.209-17.919-20.937-23.336
			c-7.178-4.455-10.418-5.61-12.539-12.391c-0.064-0.495-0.164-1.005-0.329-1.455c-0.035-0.096-0.1-0.178-0.159-0.262
			c-0.003-0.012-0.006-0.022-0.009-0.034c0,0.006-0.002,0.009-0.002,0.015c-0.652-0.885-2.56-1.116-3.563-0.824
			c-0.855,0.249-0.811,1.257-0.811,2.069c0,0.177,0.005,0.363,0.006,0.543l-0.169,80.032c-4.723-2.349-11.941-1.7-18.741,1.836
			c-9.446,4.912-14.483,13.933-11.251,20.149c3.232,6.216,13.51,7.274,22.956,2.362c7.884-4.099,10.951-10.869,10.915-16.651
			v-46.516c2.228,1.311,2.445,1.573,5.932,3.17c12.484,5.715,27.055,21.002,21.971,34.795c-0.676,1.835-2.76,5.293-3.674,7.016
			c-2.077,3.918,3.284,2.861,5.433-0.301C684.535,187.742,686.956,179.677,684.385,171.65z M656.331,126.216
			c13.045,4.281,21.77,9.733,23.747,22.801c0,0,0.005,0.115,0.015,0.314c-4.28-5.872-10.378-10.819-16.322-14.508
			c-5.87-3.643-9.334-5.412-11.59-9.685C653.142,125.421,654.36,125.57,656.331,126.216z M663.448,148.315
			c-4.588-2.847-9.282-6.376-12.792-10.366c1.313,1.046,2.548,0.821,5.675,1.847c13.045,4.281,21.77,9.733,23.747,22.801
			c0,0,0.011,0.272,0.036,0.712C675.821,157.224,669.555,152.104,663.448,148.315z"/>
		<polygon style="fill:#FFFFFF;" points="748.402,527.286 751.389,552.237 768.335,554.172 751.389,556.106 748.402,581.058 
			745.415,556.106 728.469,554.172 745.415,552.237 		"/>
		<polygon style="fill:#FFFFFF;" points="595.638,302.432 598.625,327.384 615.571,329.318 598.625,331.252 595.638,356.204 
			592.65,331.252 575.705,329.318 592.65,327.384 		"/>
		<polygon style="fill:#FFFFFF;" points="903.878,432.176 898.268,456.672 913.566,464.213 896.962,460.314 885.728,482.793 
			891.338,458.297 876.04,450.756 892.644,454.656 		"/>
		<polygon style="opacity:0.67;fill:#FFFFFF;" points="374.033,184.613 378.015,205.266 392.278,205.87 378.246,208.496 
			377.24,229.506 373.258,208.852 358.995,208.248 373.027,205.622 		"/>
	</g>
</g>
<g id="Layer_2">
</g>
</svg>
